0
SECTION
2
HEADER
9
$INSUNITS
70
1
0
ENDSEC
0
SECTION
2
TABLES
0
TABLE
2
LTYPE
0
LTYPE
72
65
70
64
2
CONTINUOUS
3
______
73
0
40
0
0
ENDTAB
0
TABLE
2
LAYER
0
ENDTAB
0
ENDSEC
0
SECTION
2
ENTITIES
0
LINE
8
Front_outsideCutPath
10
0
20
3.375
11
0
21
2.5
0
LINE
8
Front_outsideCutPath
10
0
20
2.5
11
0.118
21
2.5
0
LINE
8
Front_outsideCutPath
10
0.118
20
2.5
11
0.118
21
2
0
LINE
8
Front_outsideCutPath
10
0.118
20
2
11
0
21
2
0
LINE
8
Front_outsideCutPath
10
0
20
2
11
0
21
1.5
0
LINE
8
Front_outsideCutPath
10
0
20
1.5
11
0.118
21
1.5
0
LINE
8
Front_outsideCutPath
10
0.118
20
1.5
11
0.118
21
1
0
LINE
8
Front_outsideCutPath
10
0.118
20
1
11
0
21
1
0
LINE
8
Front_outsideCutPath
10
0
20
1
11
0
21
0.125
0
LINE
8
Front_outsideCutPath
10
0
20
0.125
11
0.5
21
0.125
0
LINE
8
Front_outsideCutPath
10
0.5
20
0.125
11
0.5
21
0.243
0
LINE
8
Front_outsideCutPath
10
0.5
20
0.243
11
1
21
0.243
0
LINE
8
Front_outsideCutPath
10
1
20
0.243
11
1
21
0.125
0
LINE
8
Front_outsideCutPath
10
1
20
0.125
11
1.5
21
0.125
0
LINE
8
Front_outsideCutPath
10
1.5
20
0.125
11
1.5
21
0.243
0
LINE
8
Front_outsideCutPath
10
1.5
20
0.243
11
2
21
0.243
0
LINE
8
Front_outsideCutPath
10
2
20
0.243
11
2
21
0.125
0
LINE
8
Front_outsideCutPath
10
2
20
0.125
11
2.5
21
0.125
0
LINE
8
Front_outsideCutPath
10
2.5
20
0.125
11
2.5
21
0.243
0
LINE
8
Front_outsideCutPath
10
2.5
20
0.243
11
3
21
0.243
0
LINE
8
Front_outsideCutPath
10
3
20
0.243
11
3
21
0.125
0
LINE
8
Front_outsideCutPath
10
3
20
0.125
11
3.5
21
0.125
0
LINE
8
Front_outsideCutPath
10
3.5
20
0.125
11
3.5
21
0.243
0
LINE
8
Front_outsideCutPath
10
3.5
20
0.243
11
4
21
0.243
0
LINE
8
Front_outsideCutPath
10
4
20
0.243
11
4
21
0.125
0
LINE
8
Front_outsideCutPath
10
4
20
0.125
11
4.5
21
0.125
0
LINE
8
Front_outsideCutPath
10
4.5
20
0.125
11
4.5
21
0.243
0
LINE
8
Front_outsideCutPath
10
4.5
20
0.243
11
5
21
0.243
0
LINE
8
Front_outsideCutPath
10
5
20
0.243
11
5
21
0.125
0
LINE
8
Front_outsideCutPath
10
5
20
0.125
11
5.5
21
0.125
0
LINE
8
Front_outsideCutPath
10
5.5
20
0.125
11
5.5
21
0.243
0
LINE
8
Front_outsideCutPath
10
5.5
20
0.243
11
6
21
0.243
0
LINE
8
Front_outsideCutPath
10
6
20
0.243
11
6
21
0.125
0
LINE
8
Front_outsideCutPath
10
6
20
0.125
11
6.5
21
0.125
0
LINE
8
Front_outsideCutPath
10
6.5
20
0.125
11
6.5
21
0.243
0
LINE
8
Front_outsideCutPath
10
6.5
20
0.243
11
7
21
0.243
0
LINE
8
Front_outsideCutPath
10
7
20
0.243
11
7
21
0.125
0
LINE
8
Front_outsideCutPath
10
7
20
0.125
11
7.5
21
0.125
0
LINE
8
Front_outsideCutPath
10
7.5
20
0.125
11
7.5
21
0.243
0
LINE
8
Front_outsideCutPath
10
7.5
20
0.243
11
8
21
0.243
0
LINE
8
Front_outsideCutPath
10
8
20
0.243
11
8
21
0.125
0
LINE
8
Front_outsideCutPath
10
8
20
0.125
11
8.5
21
0.125
0
LINE
8
Front_outsideCutPath
10
8.5
20
0.125
11
8.5
21
0.243
0
LINE
8
Front_outsideCutPath
10
8.5
20
0.243
11
9
21
0.243
0
LINE
8
Front_outsideCutPath
10
9
20
0.243
11
9
21
0.125
0
LINE
8
Front_outsideCutPath
10
9
20
0.125
11
9.5
21
0.125
0
LINE
8
Front_outsideCutPath
10
9.5
20
0.125
11
9.5
21
0.243
0
LINE
8
Front_outsideCutPath
10
9.5
20
0.243
11
10
21
0.243
0
LINE
8
Front_outsideCutPath
10
10
20
0.243
11
10
21
0.125
0
LINE
8
Front_outsideCutPath
10
10
20
0.125
11
10.5
21
0.125
0
LINE
8
Front_outsideCutPath
10
10.5
20
0.125
11
10.5
21
0.243
0
LINE
8
Front_outsideCutPath
10
10.5
20
0.243
11
11
21
0.243
0
LINE
8
Front_outsideCutPath
10
11
20
0.243
11
11
21
0.125
0
LINE
8
Front_outsideCutPath
10
11
20
0.125
11
11.5
21
0.125
0
LINE
8
Front_outsideCutPath
10
11.5
20
0.125
11
11.5
21
1
0
LINE
8
Front_outsideCutPath
10
11.5
20
1
11
11.382
21
1
0
LINE
8
Front_outsideCutPath
10
11.382
20
1
11
11.382
21
1.5
0
LINE
8
Front_outsideCutPath
10
11.382
20
1.5
11
11.5
21
1.5
0
LINE
8
Front_outsideCutPath
10
11.5
20
1.5
11
11.5
21
2
0
LINE
8
Front_outsideCutPath
10
11.5
20
2
11
11.382
21
2
0
LINE
8
Front_outsideCutPath
10
11.382
20
2
11
11.382
21
2.5
0
LINE
8
Front_outsideCutPath
10
11.382
20
2.5
11
11.5
21
2.5
0
LINE
8
Front_outsideCutPath
10
11.5
20
2.5
11
11.5
21
3.375
0
LINE
8
Front_outsideCutPath
10
11.5
20
3.375
11
0
21
3.375
0
LINE
8
Front_labelLayer
10
5.0317627
20
1.7195395
11
5.0317627
21
1.5211752
0
LINE
8
Front_labelLayer
10
5.0317627
20
1.5211752
11
4.9778076
21
1.5211752
0
LINE
8
Front_labelLayer
10
4.9778076
20
1.5211752
11
4.9778076
21
1.9851889
0
LINE
8
Front_labelLayer
10
4.9778076
20
1.9851889
11
5.2364746
21
1.9851889
0
LINE
8
Front_labelLayer
10
5.2364746
20
1.9851889
11
5.2364746
21
1.9372641
0
LINE
8
Front_labelLayer
10
5.2364746
20
1.9372641
11
5.0317627
21
1.9372641
0
LINE
8
Front_labelLayer
10
5.0317627
20
1.9372641
11
5.0317627
21
1.7674643
0
LINE
8
Front_labelLayer
10
5.0317627
20
1.7674643
11
5.2240967
21
1.7674643
0
LINE
8
Front_labelLayer
10
5.2240967
20
1.7674643
11
5.2240967
21
1.7195395
0
LINE
8
Front_labelLayer
10
5.2240967
20
1.7195395
11
5.0317627
21
1.7195395
0
LINE
8
Front_labelLayer
10
5.5056152
20
1.8715658
11
5.4983154
21
1.8226889
0
LINE
8
Front_labelLayer
10
5.3580322
20
1.7077963
11
5.3580322
21
1.5211752
0
LINE
8
Front_labelLayer
10
5.3580322
20
1.5211752
11
5.3053467
21
1.5211752
0
LINE
8
Front_labelLayer
10
5.3053467
20
1.5211752
11
5.3053467
21
1.8690268
0
LINE
8
Front_labelLayer
10
5.3053467
20
1.8690268
11
5.3488281
21
1.8690268
0
LINE
8
Front_labelLayer
10
5.3488281
20
1.8690268
11
5.3548584
21
1.8045981
0
LINE
8
Front_labelLayer
10
5.3548584
20
1.8045981
11
5.3573974
21
1.8045981
0
ARC
8
Front_labelLayer
10
5.4645809
20
1.6335441
40
0.241831
50
84.9919543
51
90.1286181
0
ARC
8
Front_labelLayer
10
5.4703928
20
1.6986223
40
0.1764939
50
78.4883253
51
85.0272063
0
ARC
8
Front_labelLayer
10
5.4478359
20
1.5960069
40
0.2322346
50
77.4457319
51
81.6357499
0
ARC
8
Front_labelLayer
10
5.4579621
20
1.6658106
40
0.1617004
50
81.5876976
51
87.1921813
0
ARC
8
Front_labelLayer
10
5.4601561
20
1.7039154
40
0.1235343
50
87.3428279
51
89.9659728
0
ARC
8
Front_labelLayer
10
5.4596453
20
1.7361635
40
0.0912879
50
89.6333416
51
137.0881812
0
ARC
8
Front_labelLayer
10
5.481977
20
1.7110348
40
0.1247941
50
135.6191463
51
138.8384823
0
ARC
8
Front_labelLayer
10
5.478767
20
1.7141734
40
0.1203119
50
138.9575969
51
174.5420953
0
ARC
8
Front_labelLayer
10
5.5179477
20
1.7080445
40
0.1599155
50
173.6913202
51
180.0889117
0
ARC
8
Front_labelLayer
10
5.5124013
20
1.7172701
40
0.1779111
50
139.4134594
51
150.6034256
0
ARC
8
Front_labelLayer
10
5.4805087
20
1.7446
40
0.1359105
50
124.2320626
51
139.4158986
0
ARC
8
Front_labelLayer
10
5.4634505
20
1.77035
40
0.105026
50
89.6794745
51
124.4407283
0
ARC
8
Front_labelLayer
10
5.5987945
20
1.6935828
40
0.2721345
50
349.1760604
51
0.3864602
0
ARC
8
Front_labelLayer
10
5.690406
20
1.6753203
40
0.1787249
50
330.2508822
51
349.411293
0
ARC
8
Front_labelLayer
10
5.7186047
20
1.6606644
40
0.1469758
50
318.1442016
51
329.7565688
0
ARC
8
Front_labelLayer
10
5.7236967
20
1.6565849
40
0.1404614
50
278.8959483
51
317.9977167
0
ARC
8
Front_labelLayer
10
5.7105828
20
1.7194228
40
0.2045972
50
269.7506393
51
279.8030059
0
ARC
8
Front_labelLayer
10
5.708458
20
1.684014
40
0.1691909
50
253.5437496
51
270.4180112
0
ARC
8
Front_labelLayer
10
5.7028273
20
1.6622288
40
0.1467052
50
238.8116221
51
253.2425227
0
ARC
8
Front_labelLayer
10
5.7010072
20
1.6585698
40
0.142633
50
207.7947027
51
238.6759417
0
ARC
8
Front_labelLayer
10
5.7269162
20
1.6744541
40
0.1729707
50
205.6540525
51
208.4473078
0
ARC
8
Front_labelLayer
10
5.7471813
20
1.6829153
40
0.1949048
50
188.9103925
51
205.3170472
0
ARC
8
Front_labelLayer
10
5.8148772
20
1.6943809
40
0.2635609
50
179.7744727
51
189.0934155
0
ARC
8
Front_labelLayer
10
5.8248666
20
1.6972702
40
0.2735545
50
169.2440492
51
180.387877
0
ARC
8
Front_labelLayer
10
5.7319725
20
1.715633
40
0.1788671
50
150.7113023
51
169.469468
0
ARC
8
Front_labelLayer
10
5.702307
20
1.7308688
40
0.1455454
50
138.1756243
51
150.2292241
0
ARC
8
Front_labelLayer
10
5.6973815
20
1.7346486
40
0.1393553
50
99.1758715
51
137.9832552
0
ARC
8
Front_labelLayer
10
5.7109581
20
1.6707639
40
0.2046128
50
89.7323198
51
100.076302
0
ARC
8
Front_labelLayer
10
5.7136723
20
1.6983435
40
0.1770397
50
73.522358
51
90.5690299
0
ARC
8
Front_labelLayer
10
5.7240536
20
1.7360653
40
0.1379245
50
41.1448593
51
73.2130886
0
ARC
8
Front_labelLayer
10
5.7042344
20
1.7190327
40
0.1640564
50
13.5015998
51
41.0701592
0
ARC
8
Front_labelLayer
10
5.6276664
20
1.6989963
40
0.2431916
50
1.1277382
51
13.8799878
0
ARC
8
Front_labelLayer
10
5.5618043
20
1.6954621
40
0.3091186
50
359.9919007
51
1.5424326
0
ARC
8
Front_labelLayer
10
5.8727061
20
1.6940505
40
0.2668014
50
179.7062466
51
187.9162724
0
ARC
8
Front_labelLayer
10
5.7748558
20
1.6799941
40
0.1679484
50
187.7641465
51
200.0974606
0
ARC
8
Front_labelLayer
10
5.7209464
20
1.6602426
40
0.1105346
50
200.084686
51
216.9126577
0
ARC
8
Front_labelLayer
10
5.7012576
20
1.646185
40
0.0863513
50
217.301019
51
261.7100435
0
ARC
8
Front_labelLayer
10
5.7103963
20
1.6897977
40
0.1308551
50
260.5036507
51
270.2476378
0
ARC
8
Front_labelLayer
10
5.7121412
20
1.6813077
40
0.1223696
50
269.4477991
51
284.7258783
0
ARC
8
Front_labelLayer
10
5.7218275
20
1.6453857
40
0.0851657
50
284.566498
51
322.6330412
0
ARC
8
Front_labelLayer
10
5.6991785
20
1.6617483
40
0.1130994
50
323.0087353
51
342.6389643
0
ARC
8
Front_labelLayer
10
5.6344046
20
1.6829197
40
0.1812419
50
342.3611202
51
353.7540484
0
ARC
8
Front_labelLayer
10
5.5388155
20
1.6944428
40
0.2775192
50
353.5362574
51
0.2014097
0
ARC
8
Front_labelLayer
10
5.5534459
20
1.6967601
40
0.2628905
50
359.707573
51
7.8969079
0
ARC
8
Front_labelLayer
10
5.6497294
20
1.7105611
40
0.1656244
50
7.7441356
51
20.0690145
0
ARC
8
Front_labelLayer
10
5.7033856
20
1.7302522
40
0.1084692
50
20.0250525
51
37.4356669
0
ARC
8
Front_labelLayer
10
5.7211783
20
1.7428788
40
0.0866694
50
37.9577333
51
80.4005463
0
ARC
8
Front_labelLayer
10
5.7110634
20
1.6977412
40
0.1328842
50
79.3457405
51
90.3174409
0
ARC
8
Front_labelLayer
10
5.7091898
20
1.7052442
40
0.1253844
50
89.4802713
51
103.8803091
0
ARC
8
Front_labelLayer
10
5.6986539
20
1.7453643
40
0.0839104
50
103.4681017
51
142.312313
0
ARC
8
Front_labelLayer
10
5.7191357
20
1.7309586
40
0.1089316
50
142.9023078
51
162.3749217
0
ARC
8
Front_labelLayer
10
5.7836746
20
1.7094517
40
0.1769554
50
162.065453
51
173.1677262
0
ARC
8
Front_labelLayer
10
5.8842987
20
1.6966171
40
0.278393
50
173.0086535
51
180.246703
0
LINE
8
Front_labelLayer
10
6.2540039
20
1.5211752
11
6.2013183
21
1.5211752
0
LINE
8
Front_labelLayer
10
6.2013183
20
1.5211752
11
6.2013183
21
1.7461996
0
LINE
8
Front_labelLayer
10
6.0159668
20
1.7036703
11
6.0159668
21
1.5211752
0
LINE
8
Front_labelLayer
10
6.0159668
20
1.5211752
11
5.9632812
21
1.5211752
0
LINE
8
Front_labelLayer
10
5.9632812
20
1.5211752
11
5.9632812
21
1.8690268
0
LINE
8
Front_labelLayer
10
5.9632812
20
1.8690268
11
6.0061279
21
1.8690268
0
LINE
8
Front_labelLayer
10
6.0061279
20
1.8690268
11
6.0146973
21
1.8214193
0
LINE
8
Front_labelLayer
10
6.0146973
20
1.8214193
11
6.0172363
21
1.8214193
0
LINE
8
Front_labelLayer
10
6.2540039
20
1.7481039
11
6.2540039
21
1.5211752
0
ARC
8
Front_labelLayer
10
6.052401
20
1.7470538
40
0.1489198
50
359.6713578
51
8.6882114
0
ARC
8
Front_labelLayer
10
6.1075899
20
1.7558072
40
0.0930425
50
8.4934434
51
22.6583782
0
ARC
8
Front_labelLayer
10
6.1356291
20
1.7674592
40
0.0626789
50
22.7032422
51
42.3412271
0
ARC
8
Front_labelLayer
10
6.1387854
20
1.7688799
40
0.0593987
50
43.379008
51
71.5385184
0
ARC
8
Front_labelLayer
10
6.1269969
20
1.7359405
40
0.0943789
50
71.0825945
51
84.3687705
0
ARC
8
Front_labelLayer
10
6.1217044
20
1.690952
40
0.1396721
50
84.0190766
51
90.1503698
0
ARC
8
Front_labelLayer
10
6.120207
20
1.67116
40
0.1594675
50
89.5936777
51
100.3713055
0
ARC
8
Front_labelLayer
10
6.1089386
20
1.7302913
40
0.0992746
50
100.1178819
51
118.1598122
0
ARC
8
Front_labelLayer
10
6.0975821
20
1.7525628
40
0.0742813
50
118.5442215
51
139.1928887
0
ARC
8
Front_labelLayer
10
6.1074818
20
1.7459192
40
0.0861284
50
140.1514976
51
160.3146013
0
ARC
8
Front_labelLayer
10
6.1672756
20
1.7235235
40
0.1499747
50
159.9535823
51
171.3803128
0
ARC
8
Front_labelLayer
10
6.2649588
20
1.7078212
40
0.2489096
50
171.1766712
51
178.3215689
0
ARC
8
Front_labelLayer
10
6.3535773
20
1.7038038
40
0.3376107
50
178.0805863
51
180.0226582
0
ARC
8
Front_labelLayer
10
6.1073636
20
1.7643382
40
0.1066826
50
116.9443286
51
147.6522826
0
ARC
8
Front_labelLayer
10
6.1185219
20
1.7456543
40
0.1284031
50
115.8073277
51
117.6051633
0
ARC
8
Front_labelLayer
10
6.1241431
20
1.7325334
40
0.142664
50
94.3224343
51
115.5456799
0
ARC
8
Front_labelLayer
10
6.1275563
20
1.7028842
40
0.1724901
50
89.9570661
51
94.7106713
0
ARC
8
Front_labelLayer
10
6.1289711
20
1.6673772
40
0.2080012
50
80.5583389
51
90.3541189
0
ARC
8
Front_labelLayer
10
6.1419696
20
1.7426655
40
0.1316013
50
65.1092616
51
80.7637833
0
ARC
8
Front_labelLayer
10
6.1571651
20
1.7763218
40
0.0946764
50
46.5586861
51
64.8783478
0
ARC
8
Front_labelLayer
10
6.1583807
20
1.7798282
40
0.0913074
50
19.3849449
51
45.5995381
0
ARC
8
Front_labelLayer
10
6.1055527
20
1.7600069
40
0.1477241
50
6.9636235
51
19.8361509
0
ARC
8
Front_labelLayer
10
6.024083
20
1.7490544
40
0.2299228
50
359.7631428
51
7.2114335
0
LINE
8
Front_labelLayer
10
6.5221924
20
1.5646566
11
6.5221924
21
1.524349
0
LINE
8
Front_labelLayer
10
6.36604
20
1.6211508
11
6.36604
21
1.8280844
0
LINE
8
Front_labelLayer
10
6.36604
20
1.8280844
11
6.3162109
21
1.8280844
0
LINE
8
Front_labelLayer
10
6.3162109
20
1.8280844
11
6.3162109
21
1.853475
0
LINE
8
Front_labelLayer
10
6.3162109
20
1.853475
11
6.36604
21
1.8753744
0
LINE
8
Front_labelLayer
10
6.36604
20
1.8753744
11
6.3882568
21
1.949642
0
LINE
8
Front_labelLayer
10
6.3882568
20
1.949642
11
6.4187256
21
1.949642
0
LINE
8
Front_labelLayer
10
6.4187256
20
1.949642
11
6.4187256
21
1.8690268
0
LINE
8
Front_labelLayer
10
6.4187256
20
1.8690268
11
6.5196533
21
1.8690268
0
LINE
8
Front_labelLayer
10
6.5196533
20
1.8690268
11
6.5196533
21
1.8280844
0
LINE
8
Front_labelLayer
10
6.5196533
20
1.8280844
11
6.4187256
21
1.8280844
0
LINE
8
Front_labelLayer
10
6.4187256
20
1.8280844
11
6.4187256
21
1.6233725
0
ARC
8
Front_labelLayer
10
6.4749476
20
1.7313334
40
0.1730248
50
269.8799223
51
278.3024907
0
ARC
8
Front_labelLayer
10
6.4774662
20
1.7121807
40
0.1537092
50
278.4044174
51
279.0192173
0
ARC
8
Front_labelLayer
10
6.4572482
20
1.8414691
40
0.2845687
50
278.9588207
51
280.512658
0
ARC
8
Front_labelLayer
10
6.4756375
20
1.7428284
40
0.1842287
50
280.4867301
51
282.6263844
0
ARC
8
Front_labelLayer
10
6.4918779
20
1.6706555
40
0.1102513
50
282.5893825
51
285.5778641
0
ARC
8
Front_labelLayer
10
6.5003813
20
1.6394137
40
0.0778738
50
285.7241625
51
286.2650931
0
ARC
8
Front_labelLayer
10
6.5000246
20
1.5712436
40
0.0518701
50
287.991688
51
295.3008551
0
ARC
8
Front_labelLayer
10
6.4875473
20
1.6090036
40
0.091638
50
283.3057553
51
288.1191698
0
ARC
8
Front_labelLayer
10
6.4743214
20
1.6641709
40
0.1483684
50
280.0083707
51
283.3730331
0
ARC
8
Front_labelLayer
10
6.4653036
20
1.71321
40
0.1982288
50
279.1894072
51
280.1118501
0
ARC
8
Front_labelLayer
10
6.4600819
20
1.7428765
40
0.2283488
50
275.5260599
51
279.2940362
0
ARC
8
Front_labelLayer
10
6.4661912
20
1.679094
40
0.1642744
50
270.8935062
51
275.5474198
0
ARC
8
Front_labelLayer
10
6.4669603
20
1.6487123
40
0.1338848
50
270.0031942
51
270.7671461
0
ARC
8
Front_labelLayer
10
6.4648418
20
1.6524197
40
0.1376086
50
253.7849557
51
270.8852091
0
ARC
8
Front_labelLayer
10
6.4485394
20
1.5968198
40
0.0796681
50
190.3819796
51
253.8770537
0
ARC
8
Front_labelLayer
10
6.5316311
20
1.619286
40
0.1656014
50
179.3547983
51
192.8476973
0
ARC
8
Front_labelLayer
10
6.5248196
20
1.6227089
40
0.1060961
50
179.6416554
51
189.7501303
0
ARC
8
Front_labelLayer
10
6.4873554
20
1.6160264
40
0.0680417
50
189.5468963
51
205.788077
0
ARC
8
Front_labelLayer
10
6.4719701
20
1.6089304
40
0.0511024
50
206.1289271
51
221.4083373
0
ARC
8
Front_labelLayer
10
6.470245
20
1.6076214
40
0.0489429
50
221.5947196
51
262.3509121
0
ARC
8
Front_labelLayer
10
6.4743498
20
1.6287393
40
0.0704306
50
261.3279636
51
270.1912971
0
LINE
8
Left_outsideCutPath
10
11.743
20
3.375
11
11.743
21
2.5
0
LINE
8
Left_outsideCutPath
10
11.743
20
2.5
11
11.625
21
2.5
0
LINE
8
Left_outsideCutPath
10
11.625
20
2.5
11
11.625
21
2
0
LINE
8
Left_outsideCutPath
10
11.625
20
2
11
11.743
21
2
0
LINE
8
Left_outsideCutPath
10
11.743
20
2
11
11.743
21
1.5
0
LINE
8
Left_outsideCutPath
10
11.743
20
1.5
11
11.625
21
1.5
0
LINE
8
Left_outsideCutPath
10
11.625
20
1.5
11
11.625
21
1
0
LINE
8
Left_outsideCutPath
10
11.625
20
1
11
11.743
21
1
0
LINE
8
Left_outsideCutPath
10
11.743
20
1
11
11.743
21
0.243
0
LINE
8
Left_outsideCutPath
10
11.743
20
0.243
11
12.375
21
0.243
0
LINE
8
Left_outsideCutPath
10
12.375
20
0.243
11
12.375
21
0.125
0
LINE
8
Left_outsideCutPath
10
12.375
20
0.125
11
12.875
21
0.125
0
LINE
8
Left_outsideCutPath
10
12.875
20
0.125
11
12.875
21
0.243
0
LINE
8
Left_outsideCutPath
10
12.875
20
0.243
11
13.375
21
0.243
0
LINE
8
Left_outsideCutPath
10
13.375
20
0.243
11
13.375
21
0.125
0
LINE
8
Left_outsideCutPath
10
13.375
20
0.125
11
13.875
21
0.125
0
LINE
8
Left_outsideCutPath
10
13.875
20
0.125
11
13.875
21
0.243
0
LINE
8
Left_outsideCutPath
10
13.875
20
0.243
11
14.375
21
0.243
0
LINE
8
Left_outsideCutPath
10
14.375
20
0.243
11
14.375
21
0.125
0
LINE
8
Left_outsideCutPath
10
14.375
20
0.125
11
14.875
21
0.125
0
LINE
8
Left_outsideCutPath
10
14.875
20
0.125
11
14.875
21
0.243
0
LINE
8
Left_outsideCutPath
10
14.875
20
0.243
11
15.375
21
0.243
0
LINE
8
Left_outsideCutPath
10
15.375
20
0.243
11
15.375
21
0.125
0
LINE
8
Left_outsideCutPath
10
15.375
20
0.125
11
15.875
21
0.125
0
LINE
8
Left_outsideCutPath
10
15.875
20
0.125
11
15.875
21
0.243
0
LINE
8
Left_outsideCutPath
10
15.875
20
0.243
11
16.375
21
0.243
0
LINE
8
Left_outsideCutPath
10
16.375
20
0.243
11
16.375
21
0.125
0
LINE
8
Left_outsideCutPath
10
16.375
20
0.125
11
16.875
21
0.125
0
LINE
8
Left_outsideCutPath
10
16.875
20
0.125
11
16.875
21
0.243
0
LINE
8
Left_outsideCutPath
10
16.875
20
0.243
11
17.375
21
0.243
0
LINE
8
Left_outsideCutPath
10
17.375
20
0.243
11
17.375
21
0.125
0
LINE
8
Left_outsideCutPath
10
17.375
20
0.125
11
17.875
21
0.125
0
LINE
8
Left_outsideCutPath
10
17.875
20
0.125
11
17.875
21
0.243
0
LINE
8
Left_outsideCutPath
10
17.875
20
0.243
11
18.375
21
0.243
0
LINE
8
Left_outsideCutPath
10
18.375
20
0.243
11
18.375
21
0.125
0
LINE
8
Left_outsideCutPath
10
18.375
20
0.125
11
18.875
21
0.125
0
LINE
8
Left_outsideCutPath
10
18.875
20
0.125
11
18.875
21
0.243
0
LINE
8
Left_outsideCutPath
10
18.875
20
0.243
11
19.375
21
0.243
0
LINE
8
Left_outsideCutPath
10
19.375
20
0.243
11
19.375
21
0.125
0
LINE
8
Left_outsideCutPath
10
19.375
20
0.125
11
19.875
21
0.125
0
LINE
8
Left_outsideCutPath
10
19.875
20
0.125
11
19.875
21
0.243
0
LINE
8
Left_outsideCutPath
10
19.875
20
0.243
11
20.375
21
0.243
0
LINE
8
Left_outsideCutPath
10
20.375
20
0.243
11
20.375
21
0.125
0
LINE
8
Left_outsideCutPath
10
20.375
20
0.125
11
20.875
21
0.125
0
LINE
8
Left_outsideCutPath
10
20.875
20
0.125
11
20.875
21
0.243
0
LINE
8
Left_outsideCutPath
10
20.875
20
0.243
11
21.375
21
0.243
0
LINE
8
Left_outsideCutPath
10
21.375
20
0.243
11
21.375
21
0.125
0
LINE
8
Left_outsideCutPath
10
21.375
20
0.125
11
21.875
21
0.125
0
LINE
8
Left_outsideCutPath
10
21.875
20
0.125
11
21.875
21
0.243
0
LINE
8
Left_outsideCutPath
10
21.875
20
0.243
11
22.507
21
0.243
0
LINE
8
Left_outsideCutPath
10
22.507
20
0.243
11
22.507
21
1
0
LINE
8
Left_outsideCutPath
10
22.507
20
1
11
22.625
21
1
0
LINE
8
Left_outsideCutPath
10
22.625
20
1
11
22.625
21
1.5
0
LINE
8
Left_outsideCutPath
10
22.625
20
1.5
11
22.507
21
1.5
0
LINE
8
Left_outsideCutPath
10
22.507
20
1.5
11
22.507
21
2
0
LINE
8
Left_outsideCutPath
10
22.507
20
2
11
22.625
21
2
0
LINE
8
Left_outsideCutPath
10
22.625
20
2
11
22.625
21
2.5
0
LINE
8
Left_outsideCutPath
10
22.625
20
2.5
11
22.507
21
2.5
0
LINE
8
Left_outsideCutPath
10
22.507
20
2.5
11
22.507
21
3.375
0
LINE
8
Left_outsideCutPath
10
22.507
20
3.375
11
11.743
21
3.375
0
LINE
8
Left_labelLayer
10
16.8464966
20
1.5045113
11
16.5878296
21
1.5045113
0
LINE
8
Left_labelLayer
10
16.5878296
20
1.5045113
11
16.5878296
21
1.968525
0
LINE
8
Left_labelLayer
10
16.5878296
20
1.968525
11
16.6417847
21
1.968525
0
LINE
8
Left_labelLayer
10
16.6417847
20
1.968525
11
16.6417847
21
1.5533883
0
LINE
8
Left_labelLayer
10
16.6417847
20
1.5533883
11
16.8464966
21
1.5533883
0
LINE
8
Left_labelLayer
10
16.8464966
20
1.5533883
11
16.8464966
21
1.5045113
0
LINE
8
Left_labelLayer
10
17.1921265
20
1.7022408
11
17.1921265
21
1.6689156
0
LINE
8
Left_labelLayer
10
17.1921265
20
1.6689156
11
16.9525024
21
1.6689156
0
LINE
8
Left_labelLayer
10
17.1772095
20
1.5676705
11
17.1772095
21
1.5206978
0
LINE
8
Left_labelLayer
10
16.953772
20
1.7117623
11
17.1356323
21
1.7117623
0
ARC
8
Left_labelLayer
10
17.0624882
20
1.7028826
40
0.2047263
50
256.0084745
51
270.4850105
0
ARC
8
Left_labelLayer
10
17.0475797
20
1.6450109
40
0.1449679
50
223.5465201
51
256.1958112
0
ARC
8
Left_labelLayer
10
17.0558072
20
1.6509906
40
0.1550566
50
194.0880123
51
223.0535469
0
ARC
8
Left_labelLayer
10
17.1311528
20
1.6715958
40
0.2331574
50
181.3572793
51
194.4923659
0
ARC
8
Left_labelLayer
10
17.198751
20
1.675515
40
0.3008382
50
179.9875075
51
181.7985559
0
ARC
8
Left_labelLayer
10
17.1745541
20
1.6774365
40
0.2766477
50
168.953826
51
180.3843636
0
ARC
8
Left_labelLayer
10
17.084204
20
1.6958338
40
0.1844482
50
149.4070618
51
169.1853563
0
ARC
8
Left_labelLayer
10
17.0590376
20
1.709131
40
0.1560233
50
140.1063244
51
148.9069988
0
ARC
8
Left_labelLayer
10
17.0435644
20
1.7233937
40
0.1350078
50
92.4762384
51
140.5387191
0
ARC
8
Left_labelLayer
10
17.0504561
20
1.6724788
40
0.1862318
50
89.9638199
51
93.9179394
0
ARC
8
Left_labelLayer
10
17.0520999
20
1.6982052
40
0.1605126
50
74.2123615
51
90.5447818
0
ARC
8
Left_labelLayer
10
17.0621532
20
1.7352454
40
0.1221353
50
41.2065234
51
74.0230501
0
ARC
8
Left_labelLayer
10
17.0431138
20
1.7187688
40
0.1473139
50
11.599487
51
41.1494706
0
ARC
8
Left_labelLayer
10
16.9776939
20
1.7036825
40
0.2144373
50
359.6147819
51
12.0334836
0
ARC
8
Left_labelLayer
10
17.1639181
20
1.6731408
40
0.2114578
50
181.1449326
51
190.8010446
0
ARC
8
Left_labelLayer
10
17.0893174
20
1.6584263
40
0.1354223
50
190.6006236
51
206.0278338
0
ARC
8
Left_labelLayer
10
17.0563158
20
1.6428244
40
0.0989227
50
206.2952848
51
222.5556194
0
ARC
8
Left_labelLayer
10
17.0533889
20
1.6412909
40
0.0957333
50
223.0642732
51
258.1401715
0
ARC
8
Left_labelLayer
10
17.0650311
20
1.6892304
40
0.1450503
50
257.5313346
51
270.4322767
0
ARC
8
Left_labelLayer
10
17.065162
20
1.8224418
40
0.2782594
50
270.1983877
51
292.2091885
0
ARC
8
Left_labelLayer
10
17.0520467
20
1.860229
40
0.3182079
50
291.8237031
51
293.1622664
0
ARC
8
Left_labelLayer
10
17.0511628
20
1.8107736
40
0.3162779
50
287.9023348
51
293.486404
0
ARC
8
Left_labelLayer
10
17.0740981
20
1.7400174
40
0.2418973
50
281.9936537
51
287.8846299
0
ARC
8
Left_labelLayer
10
17.0796679
20
1.7199869
40
0.2211504
50
275.9050091
51
281.6605263
0
ARC
8
Left_labelLayer
10
17.0685327
20
1.8238982
40
0.3256563
50
271.9119807
51
275.9728876
0
ARC
8
Left_labelLayer
10
17.0644635
20
1.9274331
40
0.4292697
50
269.9676608
51
271.9937465
0
ARC
8
Left_labelLayer
10
17.0489279
20
1.7107408
40
0.1038584
50
89.442225
51
106.2084833
0
ARC
8
Left_labelLayer
10
17.0426793
20
1.7335259
40
0.0802354
50
106.4654725
51
137.9178145
0
ARC
8
Left_labelLayer
10
17.0605958
20
1.7177927
40
0.1040775
50
138.099806
51
160.5863507
0
ARC
8
Left_labelLayer
10
17.1066512
20
1.7008514
40
0.1531469
50
160.3357127
51
172.5309394
0
ARC
8
Left_labelLayer
10
17.1520053
20
1.6935899
40
0.1990644
50
172.1555149
51
174.7622293
0
ARC
8
Left_labelLayer
10
16.9561008
20
1.7127821
40
0.1795344
50
359.6745285
51
8.9224244
0
ARC
8
Left_labelLayer
10
17.0202544
20
1.7232355
40
0.1145364
50
8.7339013
51
23.2770632
0
ARC
8
Left_labelLayer
10
17.0507037
20
1.7360162
40
0.0815153
50
23.4826396
51
39.7066513
0
ARC
8
Left_labelLayer
10
17.0581895
20
1.741618
40
0.0721791
50
40.0819694
51
80.6245193
0
ARC
8
Left_labelLayer
10
17.0504888
20
1.7063259
40
0.1082699
50
79.6461856
51
90.2909986
0
LINE
8
Left_labelLayer
10
17.4387329
20
1.8523629
11
17.4387329
21
1.8114205
0
LINE
8
Left_labelLayer
10
17.4387329
20
1.8114205
11
17.3501831
21
1.8114205
0
LINE
8
Left_labelLayer
10
17.3501831
20
1.8114205
11
17.3501831
21
1.5045113
0
LINE
8
Left_labelLayer
10
17.3501831
20
1.5045113
11
17.2974975
21
1.5045113
0
LINE
8
Left_labelLayer
10
17.2974975
20
1.5045113
11
17.2974975
21
1.8114205
0
LINE
8
Left_labelLayer
10
17.2974975
20
1.8114205
11
17.2352905
21
1.8114205
0
LINE
8
Left_labelLayer
10
17.2352905
20
1.8114205
11
17.2352905
21
1.8352242
0
LINE
8
Left_labelLayer
10
17.2352905
20
1.8352242
11
17.2974975
21
1.8542672
0
LINE
8
Left_labelLayer
10
17.2974975
20
1.8542672
11
17.2974975
21
1.8736275
0
LINE
8
Left_labelLayer
10
17.4742798
20
1.9907418
11
17.4606323
21
1.9485299
0
LINE
8
Left_labelLayer
10
17.3501831
20
1.874897
11
17.3501831
21
1.8523629
0
LINE
8
Left_labelLayer
10
17.3501831
20
1.8523629
11
17.4387329
21
1.8523629
0
ARC
8
Left_labelLayer
10
17.5110059
20
1.876083
40
0.2135225
50
167.5773571
51
180.6589068
0
ARC
8
Left_labelLayer
10
17.4106076
20
1.8994903
40
0.1104466
50
141.7437286
51
168.2317873
0
ARC
8
Left_labelLayer
10
17.3942556
20
1.9080251
40
0.0923851
50
98.2549017
51
139.62041
0
ARC
8
Left_labelLayer
10
17.4086094
20
1.8417215
40
0.1601313
50
89.6693044
51
99.9315988
0
ARC
8
Left_labelLayer
10
17.4086491
20
1.8321822
40
0.1696703
50
81.564146
51
89.7012854
0
ARC
8
Left_labelLayer
10
17.396716
20
1.7489509
40
0.2537521
50
75.9740695
51
81.6558728
0
ARC
8
Left_labelLayer
10
17.3761908
20
1.6638511
40
0.3412901
50
73.2972584
51
76.0935328
0
ARC
8
Left_labelLayer
10
17.3813869
20
1.7051842
40
0.2559237
50
71.9621753
51
76.5911442
0
ARC
8
Left_labelLayer
10
17.4012646
20
1.7894993
40
0.1692976
50
76.5178197
51
83.0225431
0
ARC
8
Left_labelLayer
10
17.4081716
20
1.8450667
40
0.1133027
50
83.0759376
51
89.7927057
0
ARC
8
Left_labelLayer
10
17.4079432
20
1.8873215
40
0.0710501
50
89.4852624
51
103.4195081
0
ARC
8
Left_labelLayer
10
17.4015376
20
1.911931
40
0.0456287
50
102.7672437
51
144.3385079
0
ARC
8
Left_labelLayer
10
17.4144413
20
1.9036278
40
0.0609584
50
145.0685487
51
162.1805022
0
ARC
8
Left_labelLayer
10
17.4587019
20
1.8887375
40
0.1076542
50
161.8444859
51
171.7843655
0
ARC
8
Left_labelLayer
10
17.5308261
20
1.8779024
40
0.1805871
50
171.6519413
51
178.4387488
0
ARC
8
Left_labelLayer
10
17.5987076
20
1.8749976
40
0.2485246
50
178.1956934
51
180.0231812
0
LINE
8
Left_labelLayer
10
17.6621704
20
1.5479927
11
17.6621704
21
1.5076851
0
LINE
8
Left_labelLayer
10
17.5060181
20
1.6044869
11
17.5060181
21
1.8114205
0
LINE
8
Left_labelLayer
10
17.5060181
20
1.8114205
11
17.456189
21
1.8114205
0
LINE
8
Left_labelLayer
10
17.456189
20
1.8114205
11
17.456189
21
1.8368111
0
LINE
8
Left_labelLayer
10
17.456189
20
1.8368111
11
17.5060181
21
1.8587105
0
LINE
8
Left_labelLayer
10
17.5060181
20
1.8587105
11
17.5282348
21
1.9329781
0
LINE
8
Left_labelLayer
10
17.5282348
20
1.9329781
11
17.5587036
21
1.9329781
0
LINE
8
Left_labelLayer
10
17.5587036
20
1.9329781
11
17.5587036
21
1.8523629
0
LINE
8
Left_labelLayer
10
17.5587036
20
1.8523629
11
17.6596313
21
1.8523629
0
LINE
8
Left_labelLayer
10
17.6596313
20
1.8523629
11
17.6596313
21
1.8114205
0
LINE
8
Left_labelLayer
10
17.6596313
20
1.8114205
11
17.5587036
21
1.8114205
0
LINE
8
Left_labelLayer
10
17.5587036
20
1.8114205
11
17.5587036
21
1.6067086
0
ARC
8
Left_labelLayer
10
17.6149256
20
1.7146695
40
0.1730248
50
269.8799223
51
278.3024907
0
ARC
8
Left_labelLayer
10
17.6174442
20
1.6955168
40
0.1537092
50
278.4044174
51
279.0192173
0
ARC
8
Left_labelLayer
10
17.5972262
20
1.8248052
40
0.2845687
50
278.9588207
51
280.512658
0
ARC
8
Left_labelLayer
10
17.6156155
20
1.7261645
40
0.1842287
50
280.4867301
51
282.6263844
0
ARC
8
Left_labelLayer
10
17.6318559
20
1.6539916
40
0.1102513
50
282.5893825
51
285.5778641
0
ARC
8
Left_labelLayer
10
17.6403593
20
1.6227498
40
0.0778738
50
285.7241625
51
286.2650931
0
ARC
8
Left_labelLayer
10
17.6400026
20
1.5545797
40
0.0518701
50
287.991688
51
295.3008551
0
ARC
8
Left_labelLayer
10
17.6275253
20
1.5923397
40
0.091638
50
283.3057553
51
288.1191698
0
ARC
8
Left_labelLayer
10
17.6142994
20
1.6475069
40
0.1483684
50
280.0083707
51
283.3730331
0
ARC
8
Left_labelLayer
10
17.6052816
20
1.6965461
40
0.1982288
50
279.1894072
51
280.1118501
0
ARC
8
Left_labelLayer
10
17.6000599
20
1.7262126
40
0.2283488
50
275.5260599
51
279.2940362
0
ARC
8
Left_labelLayer
10
17.6061692
20
1.6624301
40
0.1642744
50
270.8935062
51
275.5474198
0
ARC
8
Left_labelLayer
10
17.6069383
20
1.6320484
40
0.1338848
50
270.0031942
51
270.7671461
0
ARC
8
Left_labelLayer
10
17.6048198
20
1.6357558
40
0.1376086
50
253.7849557
51
270.8852091
0
ARC
8
Left_labelLayer
10
17.5885174
20
1.5801559
40
0.0796681
50
190.3819796
51
253.8770537
0
ARC
8
Left_labelLayer
10
17.6716091
20
1.6026221
40
0.1656014
50
179.3547983
51
192.8476973
0
ARC
8
Left_labelLayer
10
17.6647976
20
1.606045
40
0.1060961
50
179.6416554
51
189.7501303
0
ARC
8
Left_labelLayer
10
17.6273335
20
1.5993625
40
0.0680417
50
189.5468963
51
205.788077
0
ARC
8
Left_labelLayer
10
17.6119481
20
1.5922665
40
0.0511024
50
206.1289271
51
221.4083373
0
ARC
8
Left_labelLayer
10
17.610223
20
1.5909575
40
0.0489429
50
221.5947196
51
262.3509121
0
ARC
8
Left_labelLayer
10
17.6143278
20
1.6120754
40
0.0704306
50
261.3279636
51
270.1912971
0
LINE
8
Bottom_outsideCutPath
10
33.75
20
0.125
11
33.75
21
0.243
0
LINE
8
Bottom_outsideCutPath
10
33.75
20
0.243
11
34.25
21
0.243
0
LINE
8
Bottom_outsideCutPath
10
34.25
20
0.243
11
34.25
21
0.875
0
LINE
8
Bottom_outsideCutPath
10
34.25
20
0.875
11
34.132
21
0.875
0
LINE
8
Bottom_outsideCutPath
10
34.132
20
0.875
11
34.132
21
1.375
0
LINE
8
Bottom_outsideCutPath
10
34.132
20
1.375
11
34.25
21
1.375
0
LINE
8
Bottom_outsideCutPath
10
34.25
20
1.375
11
34.25
21
1.875
0
LINE
8
Bottom_outsideCutPath
10
34.25
20
1.875
11
34.132
21
1.875
0
LINE
8
Bottom_outsideCutPath
10
34.132
20
1.875
11
34.132
21
2.375
0
LINE
8
Bottom_outsideCutPath
10
34.132
20
2.375
11
34.25
21
2.375
0
LINE
8
Bottom_outsideCutPath
10
34.25
20
2.375
11
34.25
21
2.875
0
LINE
8
Bottom_outsideCutPath
10
34.25
20
2.875
11
34.132
21
2.875
0
LINE
8
Bottom_outsideCutPath
10
34.132
20
2.875
11
34.132
21
3.375
0
LINE
8
Bottom_outsideCutPath
10
34.132
20
3.375
11
34.25
21
3.375
0
LINE
8
Bottom_outsideCutPath
10
34.25
20
3.375
11
34.25
21
3.875
0
LINE
8
Bottom_outsideCutPath
10
34.25
20
3.875
11
34.132
21
3.875
0
LINE
8
Bottom_outsideCutPath
10
34.132
20
3.875
11
34.132
21
4.375
0
LINE
8
Bottom_outsideCutPath
10
34.132
20
4.375
11
34.25
21
4.375
0
LINE
8
Bottom_outsideCutPath
10
34.25
20
4.375
11
34.25
21
4.875
0
LINE
8
Bottom_outsideCutPath
10
34.25
20
4.875
11
34.132
21
4.875
0
LINE
8
Bottom_outsideCutPath
10
34.132
20
4.875
11
34.132
21
5.375
0
LINE
8
Bottom_outsideCutPath
10
34.132
20
5.375
11
34.25
21
5.375
0
LINE
8
Bottom_outsideCutPath
10
34.25
20
5.375
11
34.25
21
5.875
0
LINE
8
Bottom_outsideCutPath
10
34.25
20
5.875
11
34.132
21
5.875
0
LINE
8
Bottom_outsideCutPath
10
34.132
20
5.875
11
34.132
21
6.375
0
LINE
8
Bottom_outsideCutPath
10
34.132
20
6.375
11
34.25
21
6.375
0
LINE
8
Bottom_outsideCutPath
10
34.25
20
6.375
11
34.25
21
6.875
0
LINE
8
Bottom_outsideCutPath
10
34.25
20
6.875
11
34.132
21
6.875
0
LINE
8
Bottom_outsideCutPath
10
34.132
20
6.875
11
34.132
21
7.375
0
LINE
8
Bottom_outsideCutPath
10
34.132
20
7.375
11
34.25
21
7.375
0
LINE
8
Bottom_outsideCutPath
10
34.25
20
7.375
11
34.25
21
7.875
0
LINE
8
Bottom_outsideCutPath
10
34.25
20
7.875
11
34.132
21
7.875
0
LINE
8
Bottom_outsideCutPath
10
34.132
20
7.875
11
34.132
21
8.375
0
LINE
8
Bottom_outsideCutPath
10
34.132
20
8.375
11
34.25
21
8.375
0
LINE
8
Bottom_outsideCutPath
10
34.25
20
8.375
11
34.25
21
8.875
0
LINE
8
Bottom_outsideCutPath
10
34.25
20
8.875
11
34.132
21
8.875
0
LINE
8
Bottom_outsideCutPath
10
34.132
20
8.875
11
34.132
21
9.375
0
LINE
8
Bottom_outsideCutPath
10
34.132
20
9.375
11
34.25
21
9.375
0
LINE
8
Bottom_outsideCutPath
10
34.25
20
9.375
11
34.25
21
9.875
0
LINE
8
Bottom_outsideCutPath
10
34.25
20
9.875
11
34.132
21
9.875
0
LINE
8
Bottom_outsideCutPath
10
34.132
20
9.875
11
34.132
21
10.375
0
LINE
8
Bottom_outsideCutPath
10
34.132
20
10.375
11
34.25
21
10.375
0
LINE
8
Bottom_outsideCutPath
10
34.25
20
10.375
11
34.25
21
11.007
0
LINE
8
Bottom_outsideCutPath
10
34.25
20
11.007
11
33.75
21
11.007
0
LINE
8
Bottom_outsideCutPath
10
33.75
20
11.007
11
33.75
21
11.125
0
LINE
8
Bottom_outsideCutPath
10
33.75
20
11.125
11
33.25
21
11.125
0
LINE
8
Bottom_outsideCutPath
10
33.25
20
11.125
11
33.25
21
11.007
0
LINE
8
Bottom_outsideCutPath
10
33.25
20
11.007
11
32.75
21
11.007
0
LINE
8
Bottom_outsideCutPath
10
32.75
20
11.007
11
32.75
21
11.125
0
LINE
8
Bottom_outsideCutPath
10
32.75
20
11.125
11
32.25
21
11.125
0
LINE
8
Bottom_outsideCutPath
10
32.25
20
11.125
11
32.25
21
11.007
0
LINE
8
Bottom_outsideCutPath
10
32.25
20
11.007
11
31.75
21
11.007
0
LINE
8
Bottom_outsideCutPath
10
31.75
20
11.007
11
31.75
21
11.125
0
LINE
8
Bottom_outsideCutPath
10
31.75
20
11.125
11
31.25
21
11.125
0
LINE
8
Bottom_outsideCutPath
10
31.25
20
11.125
11
31.25
21
11.007
0
LINE
8
Bottom_outsideCutPath
10
31.25
20
11.007
11
30.75
21
11.007
0
LINE
8
Bottom_outsideCutPath
10
30.75
20
11.007
11
30.75
21
11.125
0
LINE
8
Bottom_outsideCutPath
10
30.75
20
11.125
11
30.25
21
11.125
0
LINE
8
Bottom_outsideCutPath
10
30.25
20
11.125
11
30.25
21
11.007
0
LINE
8
Bottom_outsideCutPath
10
30.25
20
11.007
11
29.75
21
11.007
0
LINE
8
Bottom_outsideCutPath
10
29.75
20
11.007
11
29.75
21
11.125
0
LINE
8
Bottom_outsideCutPath
10
29.75
20
11.125
11
29.25
21
11.125
0
LINE
8
Bottom_outsideCutPath
10
29.25
20
11.125
11
29.25
21
11.007
0
LINE
8
Bottom_outsideCutPath
10
29.25
20
11.007
11
28.75
21
11.007
0
LINE
8
Bottom_outsideCutPath
10
28.75
20
11.007
11
28.75
21
11.125
0
LINE
8
Bottom_outsideCutPath
10
28.75
20
11.125
11
28.25
21
11.125
0
LINE
8
Bottom_outsideCutPath
10
28.25
20
11.125
11
28.25
21
11.007
0
LINE
8
Bottom_outsideCutPath
10
28.25
20
11.007
11
27.75
21
11.007
0
LINE
8
Bottom_outsideCutPath
10
27.75
20
11.007
11
27.75
21
11.125
0
LINE
8
Bottom_outsideCutPath
10
27.75
20
11.125
11
27.25
21
11.125
0
LINE
8
Bottom_outsideCutPath
10
27.25
20
11.125
11
27.25
21
11.007
0
LINE
8
Bottom_outsideCutPath
10
27.25
20
11.007
11
26.75
21
11.007
0
LINE
8
Bottom_outsideCutPath
10
26.75
20
11.007
11
26.75
21
11.125
0
LINE
8
Bottom_outsideCutPath
10
26.75
20
11.125
11
26.25
21
11.125
0
LINE
8
Bottom_outsideCutPath
10
26.25
20
11.125
11
26.25
21
11.007
0
LINE
8
Bottom_outsideCutPath
10
26.25
20
11.007
11
25.75
21
11.007
0
LINE
8
Bottom_outsideCutPath
10
25.75
20
11.007
11
25.75
21
11.125
0
LINE
8
Bottom_outsideCutPath
10
25.75
20
11.125
11
25.25
21
11.125
0
LINE
8
Bottom_outsideCutPath
10
25.25
20
11.125
11
25.25
21
11.007
0
LINE
8
Bottom_outsideCutPath
10
25.25
20
11.007
11
24.75
21
11.007
0
LINE
8
Bottom_outsideCutPath
10
24.75
20
11.007
11
24.75
21
11.125
0
LINE
8
Bottom_outsideCutPath
10
24.75
20
11.125
11
24.25
21
11.125
0
LINE
8
Bottom_outsideCutPath
10
24.25
20
11.125
11
24.25
21
11.007
0
LINE
8
Bottom_outsideCutPath
10
24.25
20
11.007
11
23.75
21
11.007
0
LINE
8
Bottom_outsideCutPath
10
23.75
20
11.007
11
23.75
21
11.125
0
LINE
8
Bottom_outsideCutPath
10
23.75
20
11.125
11
23.25
21
11.125
0
LINE
8
Bottom_outsideCutPath
10
23.25
20
11.125
11
23.25
21
11.007
0
LINE
8
Bottom_outsideCutPath
10
23.25
20
11.007
11
22.75
21
11.007
0
LINE
8
Bottom_outsideCutPath
10
22.75
20
11.007
11
22.75
21
10.375
0
LINE
8
Bottom_outsideCutPath
10
22.75
20
10.375
11
22.868
21
10.375
0
LINE
8
Bottom_outsideCutPath
10
22.868
20
10.375
11
22.868
21
9.875
0
LINE
8
Bottom_outsideCutPath
10
22.868
20
9.875
11
22.75
21
9.875
0
LINE
8
Bottom_outsideCutPath
10
22.75
20
9.875
11
22.75
21
9.375
0
LINE
8
Bottom_outsideCutPath
10
22.75
20
9.375
11
22.868
21
9.375
0
LINE
8
Bottom_outsideCutPath
10
22.868
20
9.375
11
22.868
21
8.875
0
LINE
8
Bottom_outsideCutPath
10
22.868
20
8.875
11
22.75
21
8.875
0
LINE
8
Bottom_outsideCutPath
10
22.75
20
8.875
11
22.75
21
8.375
0
LINE
8
Bottom_outsideCutPath
10
22.75
20
8.375
11
22.868
21
8.375
0
LINE
8
Bottom_outsideCutPath
10
22.868
20
8.375
11
22.868
21
7.875
0
LINE
8
Bottom_outsideCutPath
10
22.868
20
7.875
11
22.75
21
7.875
0
LINE
8
Bottom_outsideCutPath
10
22.75
20
7.875
11
22.75
21
7.375
0
LINE
8
Bottom_outsideCutPath
10
22.75
20
7.375
11
22.868
21
7.375
0
LINE
8
Bottom_outsideCutPath
10
22.868
20
7.375
11
22.868
21
6.875
0
LINE
8
Bottom_outsideCutPath
10
22.868
20
6.875
11
22.75
21
6.875
0
LINE
8
Bottom_outsideCutPath
10
22.75
20
6.875
11
22.75
21
6.375
0
LINE
8
Bottom_outsideCutPath
10
22.75
20
6.375
11
22.868
21
6.375
0
LINE
8
Bottom_outsideCutPath
10
22.868
20
6.375
11
22.868
21
5.875
0
LINE
8
Bottom_outsideCutPath
10
22.868
20
5.875
11
22.75
21
5.875
0
LINE
8
Bottom_outsideCutPath
10
22.75
20
5.875
11
22.75
21
5.375
0
LINE
8
Bottom_outsideCutPath
10
22.75
20
5.375
11
22.868
21
5.375
0
LINE
8
Bottom_outsideCutPath
10
22.868
20
5.375
11
22.868
21
4.875
0
LINE
8
Bottom_outsideCutPath
10
22.868
20
4.875
11
22.75
21
4.875
0
LINE
8
Bottom_outsideCutPath
10
22.75
20
4.875
11
22.75
21
4.375
0
LINE
8
Bottom_outsideCutPath
10
22.75
20
4.375
11
22.868
21
4.375
0
LINE
8
Bottom_outsideCutPath
10
22.868
20
4.375
11
22.868
21
3.875
0
LINE
8
Bottom_outsideCutPath
10
22.868
20
3.875
11
22.75
21
3.875
0
LINE
8
Bottom_outsideCutPath
10
22.75
20
3.875
11
22.75
21
3.375
0
LINE
8
Bottom_outsideCutPath
10
22.75
20
3.375
11
22.868
21
3.375
0
LINE
8
Bottom_outsideCutPath
10
22.868
20
3.375
11
22.868
21
2.875
0
LINE
8
Bottom_outsideCutPath
10
22.868
20
2.875
11
22.75
21
2.875
0
LINE
8
Bottom_outsideCutPath
10
22.75
20
2.875
11
22.75
21
2.375
0
LINE
8
Bottom_outsideCutPath
10
22.75
20
2.375
11
22.868
21
2.375
0
LINE
8
Bottom_outsideCutPath
10
22.868
20
2.375
11
22.868
21
1.875
0
LINE
8
Bottom_outsideCutPath
10
22.868
20
1.875
11
22.75
21
1.875
0
LINE
8
Bottom_outsideCutPath
10
22.75
20
1.875
11
22.75
21
1.375
0
LINE
8
Bottom_outsideCutPath
10
22.75
20
1.375
11
22.868
21
1.375
0
LINE
8
Bottom_outsideCutPath
10
22.868
20
1.375
11
22.868
21
0.875
0
LINE
8
Bottom_outsideCutPath
10
22.868
20
0.875
11
22.75
21
0.875
0
LINE
8
Bottom_outsideCutPath
10
22.75
20
0.875
11
22.75
21
0.243
0
LINE
8
Bottom_outsideCutPath
10
22.75
20
0.243
11
23.25
21
0.243
0
LINE
8
Bottom_outsideCutPath
10
23.25
20
0.243
11
23.25
21
0.125
0
LINE
8
Bottom_outsideCutPath
10
23.25
20
0.125
11
23.75
21
0.125
0
LINE
8
Bottom_outsideCutPath
10
23.75
20
0.125
11
23.75
21
0.243
0
LINE
8
Bottom_outsideCutPath
10
23.75
20
0.243
11
24.25
21
0.243
0
LINE
8
Bottom_outsideCutPath
10
24.25
20
0.243
11
24.25
21
0.125
0
LINE
8
Bottom_outsideCutPath
10
24.25
20
0.125
11
24.75
21
0.125
0
LINE
8
Bottom_outsideCutPath
10
24.75
20
0.125
11
24.75
21
0.243
0
LINE
8
Bottom_outsideCutPath
10
24.75
20
0.243
11
25.25
21
0.243
0
LINE
8
Bottom_outsideCutPath
10
25.25
20
0.243
11
25.25
21
0.125
0
LINE
8
Bottom_outsideCutPath
10
25.25
20
0.125
11
25.75
21
0.125
0
LINE
8
Bottom_outsideCutPath
10
25.75
20
0.125
11
25.75
21
0.243
0
LINE
8
Bottom_outsideCutPath
10
25.75
20
0.243
11
26.25
21
0.243
0
LINE
8
Bottom_outsideCutPath
10
26.25
20
0.243
11
26.25
21
0.125
0
LINE
8
Bottom_outsideCutPath
10
26.25
20
0.125
11
26.75
21
0.125
0
LINE
8
Bottom_outsideCutPath
10
26.75
20
0.125
11
26.75
21
0.243
0
LINE
8
Bottom_outsideCutPath
10
26.75
20
0.243
11
27.25
21
0.243
0
LINE
8
Bottom_outsideCutPath
10
27.25
20
0.243
11
27.25
21
0.125
0
LINE
8
Bottom_outsideCutPath
10
27.25
20
0.125
11
27.75
21
0.125
0
LINE
8
Bottom_outsideCutPath
10
27.75
20
0.125
11
27.75
21
0.243
0
LINE
8
Bottom_outsideCutPath
10
27.75
20
0.243
11
28.25
21
0.243
0
LINE
8
Bottom_outsideCutPath
10
28.25
20
0.243
11
28.25
21
0.125
0
LINE
8
Bottom_outsideCutPath
10
28.25
20
0.125
11
28.75
21
0.125
0
LINE
8
Bottom_outsideCutPath
10
28.75
20
0.125
11
28.75
21
0.243
0
LINE
8
Bottom_outsideCutPath
10
28.75
20
0.243
11
29.25
21
0.243
0
LINE
8
Bottom_outsideCutPath
10
29.25
20
0.243
11
29.25
21
0.125
0
LINE
8
Bottom_outsideCutPath
10
29.25
20
0.125
11
29.75
21
0.125
0
LINE
8
Bottom_outsideCutPath
10
29.75
20
0.125
11
29.75
21
0.243
0
LINE
8
Bottom_outsideCutPath
10
29.75
20
0.243
11
30.25
21
0.243
0
LINE
8
Bottom_outsideCutPath
10
30.25
20
0.243
11
30.25
21
0.125
0
LINE
8
Bottom_outsideCutPath
10
30.25
20
0.125
11
30.75
21
0.125
0
LINE
8
Bottom_outsideCutPath
10
30.75
20
0.125
11
30.75
21
0.243
0
LINE
8
Bottom_outsideCutPath
10
30.75
20
0.243
11
31.25
21
0.243
0
LINE
8
Bottom_outsideCutPath
10
31.25
20
0.243
11
31.25
21
0.125
0
LINE
8
Bottom_outsideCutPath
10
31.25
20
0.125
11
31.75
21
0.125
0
LINE
8
Bottom_outsideCutPath
10
31.75
20
0.125
11
31.75
21
0.243
0
LINE
8
Bottom_outsideCutPath
10
31.75
20
0.243
11
32.25
21
0.243
0
LINE
8
Bottom_outsideCutPath
10
32.25
20
0.243
11
32.25
21
0.125
0
LINE
8
Bottom_outsideCutPath
10
32.25
20
0.125
11
32.75
21
0.125
0
LINE
8
Bottom_outsideCutPath
10
32.75
20
0.125
11
32.75
21
0.243
0
LINE
8
Bottom_outsideCutPath
10
32.75
20
0.243
11
33.25
21
0.243
0
LINE
8
Bottom_outsideCutPath
10
33.25
20
0.243
11
33.25
21
0.125
0
LINE
8
Bottom_outsideCutPath
10
33.25
20
0.125
11
33.75
21
0.125
0
LINE
8
Bottom_labelLayer
10
24.8557077
20
4.8505113
11
24.8557077
21
6.4210191
0
LINE
8
Bottom_labelLayer
10
24.8557077
20
6.4210191
11
25.2993601
21
6.4210191
0
LINE
8
Bottom_labelLayer
10
25.5861765
20
5.684105
11
25.5861765
21
5.6733628
0
LINE
8
Bottom_labelLayer
10
25.4035593
20
4.8505113
11
24.8557077
21
4.8505113
0
LINE
8
Bottom_labelLayer
10
25.0383249
20
6.2631089
11
25.0383249
21
5.7485581
0
LINE
8
Bottom_labelLayer
10
25.0383249
20
5.7485581
11
25.3391061
21
5.7485581
0
LINE
8
Bottom_labelLayer
10
25.3068796
20
6.2631089
11
25.0383249
21
6.2631089
0
LINE
8
Bottom_labelLayer
10
25.3509226
20
5.5938706
11
25.0383249
21
5.5938706
0
LINE
8
Bottom_labelLayer
10
25.0383249
20
5.5938706
11
25.0383249
21
5.006273
0
LINE
8
Bottom_labelLayer
10
25.0383249
20
5.006273
11
25.3659616
21
5.006273
0
ARC
8
Bottom_labelLayer
10
25.3050249
20
4.7548095
40
1.6662192
50
84.8971492
51
90.1947947
0
ARC
8
Bottom_labelLayer
10
25.3647286
20
5.4030262
40
1.0152631
50
77.3550515
51
84.9994212
0
ARC
8
Bottom_labelLayer
10
25.4627903
20
5.8298618
40
0.577318
50
65.3871263
51
77.5778697
0
ARC
8
Bottom_labelLayer
10
25.5456254
20
6.0174174
40
0.3723142
50
56.4101063
51
64.9554322
0
ARC
8
Bottom_labelLayer
10
25.5834503
20
6.0748357
40
0.3035572
50
9.2459551
51
56.3615043
0
ARC
8
Bottom_labelLayer
10
25.4074854
20
6.0349204
40
0.483777
50
359.6721093
51
10.563525
0
ARC
8
Bottom_labelLayer
10
25.4795245
20
6.0288803
40
0.4117431
50
345.6388099
51
0.4552576
0
ARC
8
Bottom_labelLayer
10
25.5768403
20
6.0041821
40
0.3113424
50
319.4396173
51
345.5999475
0
ARC
8
Bottom_labelLayer
10
25.5699681
20
6.0139386
40
0.3229209
50
293.2775201
51
318.9173348
0
ARC
8
Bottom_labelLayer
10
25.508056
20
6.151404
40
0.4736705
50
280.9044832
51
293.5857684
0
ARC
8
Bottom_labelLayer
10
25.4809147
20
6.2696183
40
0.5948999
50
280.1915873
51
281.3174981
0
ARC
8
Bottom_labelLayer
10
25.4867978
20
5.0499253
40
0.6313085
50
66.9274442
51
80.9430054
0
ARC
8
Bottom_labelLayer
10
25.601455
20
5.3082515
40
0.3487381
50
36.6682828
51
67.6254688
0
ARC
8
Bottom_labelLayer
10
25.5962062
20
5.3192058
40
0.3466116
50
3.1841645
51
34.697332
0
ARC
8
Bottom_labelLayer
10
25.4323482
20
5.2979193
40
0.5115435
50
359.940296
51
4.5453884
0
ARC
8
Bottom_labelLayer
10
25.4444424
20
5.2924279
40
0.4994735
50
344.0557512
51
0.5687964
0
ARC
8
Bottom_labelLayer
10
25.5633855
20
5.2598163
40
0.37615
50
309.2853385
51
343.8551496
0
ARC
8
Bottom_labelLayer
10
25.502093
20
5.336844
40
0.4745809
50
285.9420589
51
309.1245265
0
ARC
8
Bottom_labelLayer
10
25.4302775
20
5.5737616
40
0.7221226
50
274.0491571
51
286.2578871
0
ARC
8
Bottom_labelLayer
10
25.4048851
20
5.8472389
40
0.9967286
50
269.9237882
51
274.3951053
0
ARC
8
Bottom_labelLayer
10
25.3426529
20
6.7271851
40
0.9786334
50
269.7923516
51
275.3660569
0
ARC
8
Bottom_labelLayer
10
25.3798097
20
6.3435989
40
0.5932545
50
275.257735
51
283.3280561
0
ARC
8
Bottom_labelLayer
10
25.4400771
20
6.0950382
40
0.3374981
50
283.0998223
51
295.966512
0
ARC
8
Bottom_labelLayer
10
25.4898856
20
5.9887679
40
0.2201543
50
296.4218712
51
305.3719006
0
ARC
8
Bottom_labelLayer
10
25.5061957
20
5.9621673
40
0.1890339
50
306.0081581
51
342.9776281
0
ARC
8
Bottom_labelLayer
10
25.3925311
20
6.0010324
40
0.3091209
50
342.2570304
51
356.2390657
0
ARC
8
Bottom_labelLayer
10
25.2618076
20
6.0133274
40
0.4403848
50
355.7584734
51
0.073223
0
ARC
8
Bottom_labelLayer
10
25.4135495
20
6.0168278
40
0.2886576
50
359.4169058
51
14.4500533
0
ARC
8
Bottom_labelLayer
10
25.5099363
20
6.0430433
40
0.1887829
50
14.0451012
51
58.8248821
0
ARC
8
Bottom_labelLayer
10
25.4498617
20
5.9418439
40
0.3064676
50
59.0094592
51
73.7462745
0
ARC
8
Bottom_labelLayer
10
25.3776129
20
5.7041418
40
0.5548984
50
73.4540232
51
82.3252552
0
ARC
8
Bottom_labelLayer
10
25.3246677
20
5.3282569
40
0.9344895
50
82.1859699
51
88.0879053
0
ARC
8
Bottom_labelLayer
10
25.3077004
20
4.9497748
40
1.3133342
50
87.8990306
51
90.0358072
0
ARC
8
Bottom_labelLayer
10
25.3697346
20
5.7923346
40
0.7860706
50
269.7249919
51
277.370168
0
ARC
8
Bottom_labelLayer
10
25.4090385
20
5.4988069
40
0.4899281
50
277.2151377
51
288.7572098
0
ARC
8
Bottom_labelLayer
10
25.4693627
20
5.3242204
40
0.3052179
50
288.5731272
51
306.8106721
0
ARC
8
Bottom_labelLayer
10
25.509404
20
5.2644317
40
0.2333886
50
307.7352356
51
345.8337051
0
ARC
8
Bottom_labelLayer
10
25.3744673
20
5.3033747
40
0.3737827
50
345.107919
51
358.8342966
0
ARC
8
Bottom_labelLayer
10
25.2552861
20
5.3101944
40
0.4930976
50
358.3237647
51
0.0095888
0
ARC
8
Bottom_labelLayer
10
25.4057816
20
5.3134415
40
0.3426165
50
359.4707696
51
13.6047009
0
ARC
8
Bottom_labelLayer
10
25.5246391
20
5.3446928
40
0.2197562
50
12.974631
51
55.1886957
0
ARC
8
Bottom_labelLayer
10
25.4718947
20
5.2633902
40
0.3166342
50
55.7512155
51
72.6729369
0
ARC
8
Bottom_labelLayer
10
25.4040609
20
5.0543142
40
0.5364308
50
72.4072742
51
82.6767243
0
ARC
8
Bottom_labelLayer
10
25.3585763
20
4.7174196
40
0.8763777
50
82.5348207
51
89.4272754
0
ARC
8
Bottom_labelLayer
10
25.3509953
20
4.4565608
40
1.13731
50
89.1767346
51
90.0036625
0
ARC
8
Bottom_labelLayer
10
26.3494752
20
5.4340486
40
0.9210972
50
349.1761364
51
0.3862102
0
ARC
8
Bottom_labelLayer
10
26.6595869
20
5.372226
40
0.6048983
50
330.2507286
51
349.4116783
0
ARC
8
Bottom_labelLayer
10
26.7550219
20
5.3226233
40
0.4974463
50
318.143997
51
329.7566002
0
ARC
8
Bottom_labelLayer
10
26.7722481
20
5.3088183
40
0.4754059
50
278.8959433
51
317.997911
0
ARC
8
Bottom_labelLayer
10
26.7278672
20
5.5214565
40
0.692436
50
269.7501994
51
279.8032467
0
ARC
8
Bottom_labelLayer
10
26.7206689
20
5.4016527
40
0.5726411
50
253.5437646
51
270.4181826
0
ARC
8
Bottom_labelLayer
10
26.7016044
20
5.3279084
40
0.4965238
50
238.811531
51
253.2429262
0
ARC
8
Bottom_labelLayer
10
26.6954564
20
5.3155422
40
0.4827624
50
207.7947867
51
238.6757062
0
ARC
8
Bottom_labelLayer
10
26.7834595
20
5.3694679
40
0.5857959
50
205.6553844
51
208.4469397
0
ARC
8
Bottom_labelLayer
10
26.8517273
20
5.3979373
40
0.6596709
50
188.9103192
51
205.3171469
0
ARC
8
Bottom_labelLayer
10
27.0808594
20
5.4367447
40
0.8920531
50
179.7743876
51
189.0933222
0
ARC
8
Bottom_labelLayer
10
27.114674
20
5.4465285
40
0.925882
50
169.2443049
51
180.3880739
0
ARC
8
Bottom_labelLayer
10
26.8002535
20
5.5086776
40
0.6053916
50
150.7112016
51
169.4695177
0
ARC
8
Bottom_labelLayer
10
26.6998831
20
5.5602201
40
0.4926543
50
138.1760412
51
150.2286821
0
ARC
8
Bottom_labelLayer
10
26.6831816
20
5.5730362
40
0.4716647
50
99.1759498
51
137.9832892
0
ARC
8
Bottom_labelLayer
10
26.729136
20
5.3567708
40
0.6925762
50
89.7326349
51
100.0760098
0
ARC
8
Bottom_labelLayer
10
26.7383214
20
5.4501675
40
0.5992015
50
73.5223344
51
90.5692876
0
ARC
8
Bottom_labelLayer
10
26.7734601
20
5.5778383
40
0.4668139
50
41.1446088
51
73.2133726
0
ARC
8
Bottom_labelLayer
10
26.7063797
20
5.5201848
40
0.555263
50
13.501486
51
41.070283
0
ARC
8
Bottom_labelLayer
10
26.4472264
20
5.4523677
40
0.8231056
50
1.1277234
51
13.8800438
0
ARC
8
Bottom_labelLayer
10
26.223526
20
5.440398
40
1.0470255
50
359.9923054
51
1.5416853
0
ARC
8
Bottom_labelLayer
10
27.2765594
20
5.4356218
40
0.9029925
50
179.7058706
51
187.9161505
0
ARC
8
Bottom_labelLayer
10
26.9453821
20
5.3880476
40
0.5684209
50
187.7639587
51
200.0977021
0
ARC
8
Bottom_labelLayer
10
26.7629269
20
5.3211954
40
0.374104
50
200.084556
51
216.9131198
0
ARC
8
Bottom_labelLayer
10
26.6963006
20
5.273621
40
0.2922664
50
217.3008882
51
261.7099023
0
ARC
8
Bottom_labelLayer
10
26.7272319
20
5.4212338
40
0.4428946
50
260.5035389
51
270.2475218
0
ARC
8
Bottom_labelLayer
10
26.7331351
20
5.3925154
40
0.4141913
50
269.4480632
51
284.7255075
0
ARC
8
Bottom_labelLayer
10
26.7659242
20
5.270911
40
0.2882474
50
284.5661624
51
322.6334635
0
ARC
8
Bottom_labelLayer
10
26.6892597
20
5.3262983
40
0.3828014
50
323.0089231
51
342.6389742
0
ARC
8
Bottom_labelLayer
10
26.4699841
20
5.397963
40
0.6134788
50
342.3615937
51
353.75369
0
ARC
8
Bottom_labelLayer
10
26.1465256
20
5.4369537
40
0.9392661
50
353.5361643
51
0.201528
0
ARC
8
Bottom_labelLayer
10
26.1960611
20
5.4447999
40
0.8897363
50
359.7074768
51
7.8972435
0
ARC
8
Bottom_labelLayer
10
26.5219143
20
5.4915147
40
0.5605569
50
7.7438694
51
20.0691459
0
ARC
8
Bottom_labelLayer
10
26.703478
20
5.5581429
40
0.3671543
50
20.0257339
51
37.4350263
0
ARC
8
Bottom_labelLayer
10
26.7637238
20
5.6008918
40
0.2933433
50
37.9578406
51
80.4005481
0
ARC
8
Bottom_labelLayer
10
26.7294879
20
5.4481308
40
0.4497507
50
79.3453824
51
90.3173626
0
ARC
8
Bottom_labelLayer
10
26.7231497
20
5.4735064
40
0.4243855
50
89.4806078
51
103.8803848
0
ARC
8
Bottom_labelLayer
10
26.6874904
20
5.6093
40
0.28401
50
103.4684906
51
142.3119039
0
ARC
8
Bottom_labelLayer
10
26.756812
20
5.5605477
40
0.3686926
50
142.902513
51
162.3750564
0
ARC
8
Bottom_labelLayer
10
26.975266
20
5.4877495
40
0.5989431
50
162.0654533
51
173.1674097
0
ARC
8
Bottom_labelLayer
10
27.315873
20
5.4443095
40
0.9423028
50
173.0087174
51
180.2463868
0
LINE
8
Bottom_labelLayer
10
28.1245554
20
4.9976792
11
28.1245554
21
4.8612534
0
LINE
8
Bottom_labelLayer
10
27.5960397
20
5.1888902
11
27.5960397
21
5.8892808
0
LINE
8
Bottom_labelLayer
10
27.5960397
20
5.8892808
11
27.4273874
21
5.8892808
0
LINE
8
Bottom_labelLayer
10
27.4273874
20
5.8892808
11
27.4273874
21
5.9752183
0
LINE
8
Bottom_labelLayer
10
27.4273874
20
5.9752183
11
27.5960397
21
6.0493394
0
LINE
8
Bottom_labelLayer
10
27.5960397
20
6.0493394
11
27.6712351
21
6.3007066
0
LINE
8
Bottom_labelLayer
10
27.6712351
20
6.3007066
11
27.7743601
21
6.3007066
0
LINE
8
Bottom_labelLayer
10
27.7743601
20
6.3007066
11
27.7743601
21
6.027855
0
LINE
8
Bottom_labelLayer
10
27.7743601
20
6.027855
11
28.1159616
21
6.027855
0
LINE
8
Bottom_labelLayer
10
28.1159616
20
6.027855
11
28.1159616
21
5.8892808
0
LINE
8
Bottom_labelLayer
10
28.1159616
20
5.8892808
11
27.7743601
21
5.8892808
0
LINE
8
Bottom_labelLayer
10
27.7743601
20
5.8892808
11
27.7743601
21
5.1964097
0
ARC
8
Bottom_labelLayer
10
27.9646454
20
5.5618311
40
0.5856375
50
269.8803579
51
278.3027034
0
ARC
8
Bottom_labelLayer
10
27.9700917
20
5.5170691
40
0.5405592
50
278.4166064
51
279.0083036
0
ARC
8
Bottom_labelLayer
10
27.9045044
20
5.936051
40
0.9646431
50
278.9593096
51
280.5107507
0
ARC
8
Bottom_labelLayer
10
27.9671837
20
5.5997826
40
0.6225834
50
280.4844761
51
282.6274305
0
ARC
8
Bottom_labelLayer
10
28.022049
20
5.3560475
40
0.3727497
50
282.5882081
51
285.5799657
0
ARC
8
Bottom_labelLayer
10
28.0499754
20
5.2534627
40
0.2664346
50
285.7202131
51
286.2553341
0
ARC
8
Bottom_labelLayer
10
28.0495843
20
5.0198202
40
0.1753969
50
287.9890112
51
295.3050083
0
ARC
8
Bottom_labelLayer
10
28.0072673
20
5.147861
40
0.3102482
50
283.3071558
51
288.1191917
0
ARC
8
Bottom_labelLayer
10
27.9625631
20
5.334355
40
0.5020249
50
280.0075243
51
283.3731594
0
ARC
8
Bottom_labelLayer
10
27.9327032
20
5.4964595
40
0.666853
50
279.1855947
51
280.1136746
0
ARC
8
Bottom_labelLayer
10
27.9143382
20
5.6008525
40
0.7728406
50
275.5260689
51
279.2942031
0
ARC
8
Bottom_labelLayer
10
27.935013
20
5.3849224
40
0.555923
50
270.8936215
51
275.5482295
0
ARC
8
Bottom_labelLayer
10
27.9376313
20
5.2845845
40
0.4555576
50
270.0012602
51
270.7611721
0
ARC
8
Bottom_labelLayer
10
27.9304456
20
5.2947181
40
0.4657468
50
253.784798
51
270.8852458
0
ARC
8
Bottom_labelLayer
10
27.8752673
20
5.1065381
40
0.2696447
50
190.3817922
51
253.8771841
0
ARC
8
Bottom_labelLayer
10
28.1565112
20
5.1825807
40
0.5605068
50
179.3550238
51
192.8476926
0
ARC
8
Bottom_labelLayer
10
28.133437
20
5.1941639
40
0.359084
50
179.6416547
51
189.7504209
0
ARC
8
Bottom_labelLayer
10
28.0066667
20
5.171554
40
0.2303171
50
189.5479617
51
205.7875741
0
ARC
8
Bottom_labelLayer
10
27.9545796
20
5.1475344
40
0.172971
50
206.1294799
51
221.4080742
0
ARC
8
Bottom_labelLayer
10
27.9487348
20
5.1431005
40
0.1656554
50
221.5949684
51
262.3505405
0
ARC
8
Bottom_labelLayer
10
27.9626254
20
5.2145337
40
0.2383401
50
261.3267815
51
270.1916203
0
LINE
8
Bottom_labelLayer
10
28.9012155
20
4.9976792
11
28.9012155
21
4.8612534
0
LINE
8
Bottom_labelLayer
10
28.3726999
20
5.1888902
11
28.3726999
21
5.8892808
0
LINE
8
Bottom_labelLayer
10
28.3726999
20
5.8892808
11
28.2040476
21
5.8892808
0
LINE
8
Bottom_labelLayer
10
28.2040476
20
5.8892808
11
28.2040476
21
5.9752183
0
LINE
8
Bottom_labelLayer
10
28.2040476
20
5.9752183
11
28.3726999
21
6.0493394
0
LINE
8
Bottom_labelLayer
10
28.3726999
20
6.0493394
11
28.4478952
21
6.3007066
0
LINE
8
Bottom_labelLayer
10
28.4478952
20
6.3007066
11
28.5510202
21
6.3007066
0
LINE
8
Bottom_labelLayer
10
28.5510202
20
6.3007066
11
28.5510202
21
6.027855
0
LINE
8
Bottom_labelLayer
10
28.5510202
20
6.027855
11
28.8926218
21
6.027855
0
LINE
8
Bottom_labelLayer
10
28.8926218
20
6.027855
11
28.8926218
21
5.8892808
0
LINE
8
Bottom_labelLayer
10
28.8926218
20
5.8892808
11
28.5510202
21
5.8892808
0
LINE
8
Bottom_labelLayer
10
28.5510202
20
5.8892808
11
28.5510202
21
5.1964097
0
ARC
8
Bottom_labelLayer
10
28.7413056
20
5.5618311
40
0.5856375
50
269.8803579
51
278.3027034
0
ARC
8
Bottom_labelLayer
10
28.7467518
20
5.5170691
40
0.5405592
50
278.4166064
51
279.0083036
0
ARC
8
Bottom_labelLayer
10
28.6811646
20
5.936051
40
0.9646431
50
278.9593096
51
280.5107507
0
ARC
8
Bottom_labelLayer
10
28.7438438
20
5.5997826
40
0.6225834
50
280.4844761
51
282.6274305
0
ARC
8
Bottom_labelLayer
10
28.7987091
20
5.3560475
40
0.3727497
50
282.5882081
51
285.5799657
0
ARC
8
Bottom_labelLayer
10
28.8266356
20
5.2534627
40
0.2664346
50
285.7202131
51
286.2553341
0
ARC
8
Bottom_labelLayer
10
28.8262444
20
5.0198202
40
0.1753969
50
287.9890112
51
295.3050083
0
ARC
8
Bottom_labelLayer
10
28.7839274
20
5.147861
40
0.3102482
50
283.3071558
51
288.1191917
0
ARC
8
Bottom_labelLayer
10
28.7392232
20
5.334355
40
0.5020249
50
280.0075243
51
283.3731594
0
ARC
8
Bottom_labelLayer
10
28.7093634
20
5.4964595
40
0.666853
50
279.1855947
51
280.1136746
0
ARC
8
Bottom_labelLayer
10
28.6909983
20
5.6008525
40
0.7728406
50
275.5260689
51
279.2942031
0
ARC
8
Bottom_labelLayer
10
28.7116731
20
5.3849224
40
0.555923
50
270.8936215
51
275.5482295
0
ARC
8
Bottom_labelLayer
10
28.7142914
20
5.2845845
40
0.4555576
50
270.0012602
51
270.7611721
0
ARC
8
Bottom_labelLayer
10
28.7071057
20
5.2947181
40
0.4657468
50
253.784798
51
270.8852458
0
ARC
8
Bottom_labelLayer
10
28.6519274
20
5.1065381
40
0.2696447
50
190.3817922
51
253.8771841
0
ARC
8
Bottom_labelLayer
10
28.9331714
20
5.1825807
40
0.5605068
50
179.3550238
51
192.8476926
0
ARC
8
Bottom_labelLayer
10
28.9100971
20
5.1941639
40
0.359084
50
179.6416547
51
189.7504209
0
ARC
8
Bottom_labelLayer
10
28.7833268
20
5.171554
40
0.2303171
50
189.5479617
51
205.7875741
0
ARC
8
Bottom_labelLayer
10
28.7312398
20
5.1475344
40
0.172971
50
206.1294799
51
221.4080742
0
ARC
8
Bottom_labelLayer
10
28.7253949
20
5.1431005
40
0.1656554
50
221.5949684
51
262.3505405
0
ARC
8
Bottom_labelLayer
10
28.7392856
20
5.2145337
40
0.2383401
50
261.3267815
51
270.1916203
0
ARC
8
Bottom_labelLayer
10
29.2316041
20
5.4340486
40
0.9210972
50
349.1761364
51
0.3862102
0
ARC
8
Bottom_labelLayer
10
29.5417158
20
5.372226
40
0.6048983
50
330.2507286
51
349.4116783
0
ARC
8
Bottom_labelLayer
10
29.6371508
20
5.3226233
40
0.4974463
50
318.143997
51
329.7566002
0
ARC
8
Bottom_labelLayer
10
29.654377
20
5.3088183
40
0.4754059
50
278.8959433
51
317.997911
0
ARC
8
Bottom_labelLayer
10
29.6099961
20
5.5214565
40
0.692436
50
269.7501994
51
279.8032467
0
ARC
8
Bottom_labelLayer
10
29.6027978
20
5.4016527
40
0.5726411
50
253.5437646
51
270.4181826
0
ARC
8
Bottom_labelLayer
10
29.5837334
20
5.3279084
40
0.4965238
50
238.811531
51
253.2429262
0
ARC
8
Bottom_labelLayer
10
29.5775853
20
5.3155422
40
0.4827624
50
207.7947867
51
238.6757062
0
ARC
8
Bottom_labelLayer
10
29.6655885
20
5.3694679
40
0.5857959
50
205.6553844
51
208.4469397
0
ARC
8
Bottom_labelLayer
10
29.7338562
20
5.3979373
40
0.6596709
50
188.9103192
51
205.3171469
0
ARC
8
Bottom_labelLayer
10
29.9629883
20
5.4367447
40
0.8920531
50
179.7743876
51
189.0933222
0
ARC
8
Bottom_labelLayer
10
29.9968029
20
5.4465285
40
0.925882
50
169.2443049
51
180.3880739
0
ARC
8
Bottom_labelLayer
10
29.6823824
20
5.5086776
40
0.6053916
50
150.7112016
51
169.4695177
0
ARC
8
Bottom_labelLayer
10
29.582012
20
5.5602201
40
0.4926543
50
138.1760412
51
150.2286821
0
ARC
8
Bottom_labelLayer
10
29.5653105
20
5.5730362
40
0.4716647
50
99.1759498
51
137.9832892
0
ARC
8
Bottom_labelLayer
10
29.6112649
20
5.3567708
40
0.6925762
50
89.7326349
51
100.0760098
0
ARC
8
Bottom_labelLayer
10
29.6204503
20
5.4501675
40
0.5992015
50
73.5223344
51
90.5692876
0
ARC
8
Bottom_labelLayer
10
29.655589
20
5.5778383
40
0.4668139
50
41.1446088
51
73.2133726
0
ARC
8
Bottom_labelLayer
10
29.5885086
20
5.5201848
40
0.555263
50
13.501486
51
41.070283
0
ARC
8
Bottom_labelLayer
10
29.3293553
20
5.4523677
40
0.8231056
50
1.1277234
51
13.8800438
0
ARC
8
Bottom_labelLayer
10
29.1056549
20
5.440398
40
1.0470255
50
359.9923054
51
1.5416853
0
ARC
8
Bottom_labelLayer
10
30.1586883
20
5.4356218
40
0.9029925
50
179.7058706
51
187.9161505
0
ARC
8
Bottom_labelLayer
10
29.827511
20
5.3880476
40
0.5684209
50
187.7639587
51
200.0977021
0
ARC
8
Bottom_labelLayer
10
29.6450558
20
5.3211954
40
0.374104
50
200.084556
51
216.9131198
0
ARC
8
Bottom_labelLayer
10
29.5784295
20
5.273621
40
0.2922664
50
217.3008882
51
261.7099023
0
ARC
8
Bottom_labelLayer
10
29.6093608
20
5.4212338
40
0.4428946
50
260.5035389
51
270.2475218
0
ARC
8
Bottom_labelLayer
10
29.615264
20
5.3925154
40
0.4141913
50
269.4480632
51
284.7255075
0
ARC
8
Bottom_labelLayer
10
29.6480531
20
5.270911
40
0.2882474
50
284.5661624
51
322.6334635
0
ARC
8
Bottom_labelLayer
10
29.5713886
20
5.3262983
40
0.3828014
50
323.0089231
51
342.6389742
0
ARC
8
Bottom_labelLayer
10
29.352113
20
5.397963
40
0.6134788
50
342.3615937
51
353.75369
0
ARC
8
Bottom_labelLayer
10
29.0286545
20
5.4369537
40
0.9392661
50
353.5361643
51
0.201528
0
ARC
8
Bottom_labelLayer
10
29.07819
20
5.4447999
40
0.8897363
50
359.7074768
51
7.8972435
0
ARC
8
Bottom_labelLayer
10
29.4040432
20
5.4915147
40
0.5605569
50
7.7438694
51
20.0691459
0
ARC
8
Bottom_labelLayer
10
29.5856069
20
5.5581429
40
0.3671543
50
20.0257339
51
37.4350263
0
ARC
8
Bottom_labelLayer
10
29.6458527
20
5.6008918
40
0.2933433
50
37.9578406
51
80.4005481
0
ARC
8
Bottom_labelLayer
10
29.6116168
20
5.4481308
40
0.4497507
50
79.3453824
51
90.3173626
0
ARC
8
Bottom_labelLayer
10
29.6052786
20
5.4735064
40
0.4243855
50
89.4806078
51
103.8803848
0
ARC
8
Bottom_labelLayer
10
29.5696193
20
5.6093
40
0.28401
50
103.4684906
51
142.3119039
0
ARC
8
Bottom_labelLayer
10
29.6389409
20
5.5605477
40
0.3686926
50
142.902513
51
162.3750564
0
ARC
8
Bottom_labelLayer
10
29.8573949
20
5.4877495
40
0.5989431
50
162.0654533
51
173.1674097
0
ARC
8
Bottom_labelLayer
10
30.1980019
20
5.4443095
40
0.9423028
50
173.0087174
51
180.2463868
0
LINE
8
Bottom_labelLayer
10
32.1442819
20
4.8505113
11
31.9659616
21
4.8505113
0
LINE
8
Bottom_labelLayer
10
31.9659616
20
4.8505113
11
31.9659616
21
5.6164292
0
LINE
8
Bottom_labelLayer
10
31.393403
20
5.5079331
11
31.393403
21
4.8505113
0
LINE
8
Bottom_labelLayer
10
31.393403
20
4.8505113
11
31.2150827
21
4.8505113
0
LINE
8
Bottom_labelLayer
10
31.2150827
20
4.8505113
11
31.2150827
21
5.6164292
0
LINE
8
Bottom_labelLayer
10
30.6435983
20
5.468187
11
30.6435983
21
4.8505113
0
LINE
8
Bottom_labelLayer
10
30.6435983
20
4.8505113
11
30.465278
21
4.8505113
0
LINE
8
Bottom_labelLayer
10
30.465278
20
4.8505113
11
30.465278
21
6.027855
0
LINE
8
Bottom_labelLayer
10
30.465278
20
6.027855
11
30.6102976
21
6.027855
0
LINE
8
Bottom_labelLayer
10
30.6102976
20
6.027855
11
30.6393015
21
5.8667222
0
LINE
8
Bottom_labelLayer
10
30.6393015
20
5.8667222
11
30.6478952
21
5.8667222
0
LINE
8
Bottom_labelLayer
10
31.3568796
20
5.8495347
11
31.3654733
21
5.8495347
0
LINE
8
Bottom_labelLayer
10
32.1442819
20
5.6185777
11
32.1442819
21
4.8505113
0
ARC
8
Bottom_labelLayer
10
31.4399251
20
5.6192325
40
0.526044
50
359.6946739
51
8.1472337
0
ARC
8
Bottom_labelLayer
10
31.6336761
20
5.6479062
40
0.3301862
50
7.9864747
51
20.7950485
0
ARC
8
Bottom_labelLayer
10
31.7407758
20
5.6889316
40
0.2154985
50
20.7074109
51
40.0214749
0
ARC
8
Bottom_labelLayer
10
31.7642792
20
5.7043098
40
0.1876399
50
41.0406768
51
73.1793868
0
ARC
8
Bottom_labelLayer
10
31.7302778
20
5.6014718
40
0.2959304
50
72.6396336
51
86.2567178
0
ARC
8
Bottom_labelLayer
10
31.7193837
20
5.483905
40
0.41397
50
85.8144533
51
90.0681459
0
ARC
8
Bottom_labelLayer
10
31.7153839
20
5.4390466
40
0.4588414
50
89.5620221
51
101.296183
0
ARC
8
Bottom_labelLayer
10
31.680827
20
5.604484
40
0.2898435
50
101.0033443
51
121.7839482
0
ARC
8
Bottom_labelLayer
10
31.654556
20
5.651388
40
0.2361477
50
122.3598783
51
140.2881644
0
ARC
8
Bottom_labelLayer
10
31.7018207
20
5.6167338
40
0.2946696
50
140.9765699
51
161.170031
0
ARC
8
Bottom_labelLayer
10
31.8798953
20
5.5533615
40
0.4836745
50
160.8732636
51
172.5272551
0
ARC
8
Bottom_labelLayer
10
32.1774509
20
5.5122679
40
0.7840501
50
172.3777373
51
180.1829785
0
ARC
8
Bottom_labelLayer
10
32.4395272
20
5.5079343
40
1.0461241
50
179.8997874
51
180.0000642
0
ARC
8
Bottom_labelLayer
10
30.6890462
20
5.6192325
40
0.526044
50
359.6946739
51
8.1472337
0
ARC
8
Bottom_labelLayer
10
30.8827972
20
5.6479062
40
0.3301862
50
7.9864747
51
20.7950485
0
ARC
8
Bottom_labelLayer
10
30.9898969
20
5.6889316
40
0.2154985
50
20.7074109
51
40.0214749
0
ARC
8
Bottom_labelLayer
10
31.0138871
20
5.7046446
40
0.1870529
50
41.0612522
51
72.8992329
0
ARC
8
Bottom_labelLayer
10
30.9792445
20
5.6015122
40
0.2958256
50
72.3599031
51
85.9562091
0
ARC
8
Bottom_labelLayer
10
30.9675141
20
5.4802887
40
0.4175863
50
85.5236339
51
90.0790205
0
ARC
8
Bottom_labelLayer
10
30.9635154
20
5.4550009
40
0.4428868
50
89.5571934
51
101.4833453
0
ARC
8
Bottom_labelLayer
10
30.9295227
20
5.6142598
40
0.2800532
50
101.1546683
51
123.0655856
0
ARC
8
Bottom_labelLayer
10
30.906418
20
5.654509
40
0.233731
50
123.7022371
51
142.3021043
0
ARC
8
Bottom_labelLayer
10
30.960546
20
5.6177891
40
0.2990411
50
143.0770919
51
161.3912559
0
ARC
8
Bottom_labelLayer
10
31.1787191
20
5.5407357
40
0.5304071
50
161.0234204
51
171.4470166
0
ARC
8
Bottom_labelLayer
10
31.5399049
20
5.4841553
40
0.8959938
50
171.3041473
51
178.3502568
0
ARC
8
Bottom_labelLayer
10
31.8847165
20
5.4687414
40
1.2411184
50
178.0972492
51
180.0255932
0
ARC
8
Bottom_labelLayer
10
30.9499933
20
5.6890736
40
0.3504601
50
117.1208967
51
149.5423716
0
ARC
8
Bottom_labelLayer
10
30.9857619
20
5.6254993
40
0.4233598
50
93.8343719
51
117.5071571
0
ARC
8
Bottom_labelLayer
10
30.9956405
20
5.5379959
40
0.5113436
50
89.9662027
51
94.2831215
0
ARC
8
Bottom_labelLayer
10
31.0015603
20
5.4655454
40
0.583821
50
77.5572816
51
90.5513769
0
ARC
8
Bottom_labelLayer
10
31.0557314
20
5.6985496
40
0.3446281
50
52.7026551
51
78.0053199
0
ARC
8
Bottom_labelLayer
10
31.0750316
20
5.734458
40
0.3044355
50
22.2098715
51
51.4970389
0
ARC
8
Bottom_labelLayer
10
31.688509
20
5.6644021
40
0.3723253
50
119.4042275
51
150.1828653
0
ARC
8
Bottom_labelLayer
10
31.7295965
20
5.6019668
40
0.4469196
50
118.2570074
51
120.0632911
0
ARC
8
Bottom_labelLayer
10
31.7296839
20
5.5970183
40
0.4513257
50
95.8635812
51
117.9693672
0
ARC
8
Bottom_labelLayer
10
31.7449562
20
5.4866153
40
0.5627247
50
89.9195059
51
96.2620628
0
ARC
8
Bottom_labelLayer
10
31.7498608
20
5.4294973
40
0.6198558
50
79.9360875
51
90.380279
0
ARC
8
Bottom_labelLayer
10
31.7911628
20
5.6531854
40
0.3923953
50
62.9723434
51
80.1664729
0
ARC
8
Bottom_labelLayer
10
31.8343411
20
5.7417691
40
0.2938705
50
44.228867
51
62.6230219
0
ARC
8
Bottom_labelLayer
10
31.8214954
20
5.7360915
40
0.3070745
50
19.5613596
51
43.3160837
0
ARC
8
Bottom_labelLayer
10
31.6349846
20
5.6660406
40
0.5062871
50
7.5043611
51
19.9643448
0
ARC
8
Bottom_labelLayer
10
31.3264085
20
5.6227082
40
0.8178838
50
359.7106388
51
7.6907556
0
LINE
8
Back_outsideCutPath
10
0
20
6.75
11
0
21
5.875
0
LINE
8
Back_outsideCutPath
10
0
20
5.875
11
0.118
21
5.875
0
LINE
8
Back_outsideCutPath
10
0.118
20
5.875
11
0.118
21
5.375
0
LINE
8
Back_outsideCutPath
10
0.118
20
5.375
11
0
21
5.375
0
LINE
8
Back_outsideCutPath
10
0
20
5.375
11
0
21
4.875
0
LINE
8
Back_outsideCutPath
10
0
20
4.875
11
0.118
21
4.875
0
LINE
8
Back_outsideCutPath
10
0.118
20
4.875
11
0.118
21
4.375
0
LINE
8
Back_outsideCutPath
10
0.118
20
4.375
11
0
21
4.375
0
LINE
8
Back_outsideCutPath
10
0
20
4.375
11
0
21
3.5
0
LINE
8
Back_outsideCutPath
10
0
20
3.5
11
0.5
21
3.5
0
LINE
8
Back_outsideCutPath
10
0.5
20
3.5
11
0.5
21
3.618
0
LINE
8
Back_outsideCutPath
10
0.5
20
3.618
11
1
21
3.618
0
LINE
8
Back_outsideCutPath
10
1
20
3.618
11
1
21
3.5
0
LINE
8
Back_outsideCutPath
10
1
20
3.5
11
1.5
21
3.5
0
LINE
8
Back_outsideCutPath
10
1.5
20
3.5
11
1.5
21
3.618
0
LINE
8
Back_outsideCutPath
10
1.5
20
3.618
11
2
21
3.618
0
LINE
8
Back_outsideCutPath
10
2
20
3.618
11
2
21
3.5
0
LINE
8
Back_outsideCutPath
10
2
20
3.5
11
2.5
21
3.5
0
LINE
8
Back_outsideCutPath
10
2.5
20
3.5
11
2.5
21
3.618
0
LINE
8
Back_outsideCutPath
10
2.5
20
3.618
11
3
21
3.618
0
LINE
8
Back_outsideCutPath
10
3
20
3.618
11
3
21
3.5
0
LINE
8
Back_outsideCutPath
10
3
20
3.5
11
3.5
21
3.5
0
LINE
8
Back_outsideCutPath
10
3.5
20
3.5
11
3.5
21
3.618
0
LINE
8
Back_outsideCutPath
10
3.5
20
3.618
11
4
21
3.618
0
LINE
8
Back_outsideCutPath
10
4
20
3.618
11
4
21
3.5
0
LINE
8
Back_outsideCutPath
10
4
20
3.5
11
4.5
21
3.5
0
LINE
8
Back_outsideCutPath
10
4.5
20
3.5
11
4.5
21
3.618
0
LINE
8
Back_outsideCutPath
10
4.5
20
3.618
11
5
21
3.618
0
LINE
8
Back_outsideCutPath
10
5
20
3.618
11
5
21
3.5
0
LINE
8
Back_outsideCutPath
10
5
20
3.5
11
5.5
21
3.5
0
LINE
8
Back_outsideCutPath
10
5.5
20
3.5
11
5.5
21
3.618
0
LINE
8
Back_outsideCutPath
10
5.5
20
3.618
11
6
21
3.618
0
LINE
8
Back_outsideCutPath
10
6
20
3.618
11
6
21
3.5
0
LINE
8
Back_outsideCutPath
10
6
20
3.5
11
6.5
21
3.5
0
LINE
8
Back_outsideCutPath
10
6.5
20
3.5
11
6.5
21
3.618
0
LINE
8
Back_outsideCutPath
10
6.5
20
3.618
11
7
21
3.618
0
LINE
8
Back_outsideCutPath
10
7
20
3.618
11
7
21
3.5
0
LINE
8
Back_outsideCutPath
10
7
20
3.5
11
7.5
21
3.5
0
LINE
8
Back_outsideCutPath
10
7.5
20
3.5
11
7.5
21
3.618
0
LINE
8
Back_outsideCutPath
10
7.5
20
3.618
11
8
21
3.618
0
LINE
8
Back_outsideCutPath
10
8
20
3.618
11
8
21
3.5
0
LINE
8
Back_outsideCutPath
10
8
20
3.5
11
8.5
21
3.5
0
LINE
8
Back_outsideCutPath
10
8.5
20
3.5
11
8.5
21
3.618
0
LINE
8
Back_outsideCutPath
10
8.5
20
3.618
11
9
21
3.618
0
LINE
8
Back_outsideCutPath
10
9
20
3.618
11
9
21
3.5
0
LINE
8
Back_outsideCutPath
10
9
20
3.5
11
9.5
21
3.5
0
LINE
8
Back_outsideCutPath
10
9.5
20
3.5
11
9.5
21
3.618
0
LINE
8
Back_outsideCutPath
10
9.5
20
3.618
11
10
21
3.618
0
LINE
8
Back_outsideCutPath
10
10
20
3.618
11
10
21
3.5
0
LINE
8
Back_outsideCutPath
10
10
20
3.5
11
10.5
21
3.5
0
LINE
8
Back_outsideCutPath
10
10.5
20
3.5
11
10.5
21
3.618
0
LINE
8
Back_outsideCutPath
10
10.5
20
3.618
11
11
21
3.618
0
LINE
8
Back_outsideCutPath
10
11
20
3.618
11
11
21
3.5
0
LINE
8
Back_outsideCutPath
10
11
20
3.5
11
11.5
21
3.5
0
LINE
8
Back_outsideCutPath
10
11.5
20
3.5
11
11.5
21
4.375
0
LINE
8
Back_outsideCutPath
10
11.5
20
4.375
11
11.382
21
4.375
0
LINE
8
Back_outsideCutPath
10
11.382
20
4.375
11
11.382
21
4.875
0
LINE
8
Back_outsideCutPath
10
11.382
20
4.875
11
11.5
21
4.875
0
LINE
8
Back_outsideCutPath
10
11.5
20
4.875
11
11.5
21
5.375
0
LINE
8
Back_outsideCutPath
10
11.5
20
5.375
11
11.382
21
5.375
0
LINE
8
Back_outsideCutPath
10
11.382
20
5.375
11
11.382
21
5.875
0
LINE
8
Back_outsideCutPath
10
11.382
20
5.875
11
11.5
21
5.875
0
LINE
8
Back_outsideCutPath
10
11.5
20
5.875
11
11.5
21
6.75
0
LINE
8
Back_outsideCutPath
10
11.5
20
6.75
11
0
21
6.75
0
LINE
8
Back_labelLayer
10
5.0687378
20
4.8812536
11
5.0687378
21
5.3452673
0
LINE
8
Back_labelLayer
10
5.0687378
20
5.3452673
11
5.1998169
21
5.3452673
0
LINE
8
Back_labelLayer
10
5.2845581
20
5.1275426
11
5.2845581
21
5.1243688
0
LINE
8
Back_labelLayer
10
5.230603
20
4.8812536
11
5.0687378
21
4.8812536
0
LINE
8
Back_labelLayer
10
5.1226929
20
5.298612
11
5.1226929
21
5.1465856
0
LINE
8
Back_labelLayer
10
5.1226929
20
5.1465856
11
5.2115601
21
5.1465856
0
LINE
8
Back_labelLayer
10
5.2020386
20
5.298612
11
5.1226929
21
5.298612
0
LINE
8
Back_labelLayer
10
5.2150513
20
5.1008825
11
5.1226929
21
5.1008825
0
LINE
8
Back_labelLayer
10
5.1226929
20
5.1008825
11
5.1226929
21
4.9272741
0
LINE
8
Back_labelLayer
10
5.1226929
20
4.9272741
11
5.2194946
21
4.9272741
0
ARC
8
Back_labelLayer
10
5.2014933
20
4.8530211
40
0.492249
50
84.8970177
51
90.1951272
0
ARC
8
Back_labelLayer
10
5.2191301
20
5.0444944
40
0.2999663
50
77.3550985
51
84.9994122
0
ARC
8
Back_labelLayer
10
5.2481038
20
5.1706109
40
0.1705674
50
65.3868158
51
77.5778305
0
ARC
8
Back_labelLayer
10
5.2725842
20
5.2260348
40
0.1099867
50
56.4092941
51
64.9558007
0
ARC
8
Back_labelLayer
10
5.2837528
20
5.2429858
40
0.0896873
50
9.2459729
51
56.3615747
0
ARC
8
Back_labelLayer
10
5.2317632
20
5.231193
40
0.1429339
50
359.6719742
51
10.5634053
0
ARC
8
Back_labelLayer
10
5.2530503
20
5.2294078
40
0.1216484
50
345.638595
51
0.4554045
0
ARC
8
Back_labelLayer
10
5.2818008
20
5.2221105
40
0.0919864
50
319.4393383
51
345.5999818
0
ARC
8
Back_labelLayer
10
5.2797697
20
5.224993
40
0.0954079
50
293.2773907
51
318.9173649
0
ARC
8
Back_labelLayer
10
5.2614792
20
5.2656023
40
0.1399418
50
280.9040761
51
293.5859308
0
ARC
8
Back_labelLayer
10
5.2533925
20
5.3008527
40
0.1760901
50
280.1942961
51
281.3181341
0
ARC
8
Back_labelLayer
10
5.2551986
20
4.9401791
40
0.1865149
50
66.9271743
51
80.9433441
0
ARC
8
Back_labelLayer
10
5.2890723
20
5.0164952
40
0.103036
50
36.6682271
51
67.6254895
0
ARC
8
Back_labelLayer
10
5.2875223
20
5.0197316
40
0.1024072
50
3.1841545
51
34.6975815
0
ARC
8
Back_labelLayer
10
5.2391082
20
5.013443
40
0.1511385
50
359.9400263
51
4.5450987
0
ARC
8
Back_labelLayer
10
5.2426843
20
5.0118192
40
0.1475696
50
344.0557565
51
0.5690465
0
ARC
8
Back_labelLayer
10
5.2778253
20
5.002184
40
0.1111342
50
309.2851635
51
343.855309
0
ARC
8
Back_labelLayer
10
5.2597137
20
5.0249462
40
0.1402207
50
285.9423098
51
309.1241623
0
ARC
8
Back_labelLayer
10
5.2384992
20
5.0949282
40
0.2133413
50
274.0488156
51
286.258299
0
ARC
8
Back_labelLayer
10
5.2309955
20
5.1757692
40
0.2945158
50
269.9236414
51
274.394536
0
ARC
8
Back_labelLayer
10
5.212606
20
5.4357357
40
0.289152
50
269.7927469
51
275.3662516
0
ARC
8
Back_labelLayer
10
5.223586
20
5.3223887
40
0.1752753
50
275.2578919
51
283.3284151
0
ARC
8
Back_labelLayer
10
5.2413901
20
5.2489602
40
0.0997212
50
283.1003835
51
295.966308
0
ARC
8
Back_labelLayer
10
5.2561109
20
5.2175534
40
0.0650416
50
296.4212823
51
305.3718709
0
ARC
8
Back_labelLayer
10
5.2609271
20
5.2096977
40
0.0558513
50
306.0082198
51
342.9774434
0
ARC
8
Back_labelLayer
10
5.2273518
20
5.2211796
40
0.0913242
50
342.2560749
51
356.2391949
0
ARC
8
Back_labelLayer
10
5.1887524
20
5.224811
40
0.1300831
50
355.7582928
51
0.0740574
0
ARC
8
Back_labelLayer
10
5.2335591
20
5.2258473
40
0.0852808
50
359.4167082
51
14.450628
0
ARC
8
Back_labelLayer
10
5.2620321
20
5.2335923
40
0.0557773
50
14.0452814
51
58.8246349
0
ARC
8
Back_labelLayer
10
5.2442805
20
5.2036869
40
0.0905538
50
59.0098685
51
73.7456236
0
ARC
8
Back_labelLayer
10
5.2229334
20
5.1334459
40
0.1639642
50
73.4544617
51
82.3247727
0
ARC
8
Back_labelLayer
10
5.2072933
20
5.0223991
40
0.2761058
50
82.1859771
51
88.0877699
0
ARC
8
Back_labelLayer
10
5.2022795
20
4.9105372
40
0.3880748
50
87.8990344
51
90.0355674
0
ARC
8
Back_labelLayer
10
5.2206098
20
5.1595297
40
0.2322582
50
269.7248975
51
277.3697431
0
ARC
8
Back_labelLayer
10
5.2322202
20
5.0728028
40
0.1447589
50
277.2154273
51
288.7569034
0
ARC
8
Back_labelLayer
10
5.2500436
20
5.021216
40
0.0901812
50
288.5733448
51
306.8102462
0
ARC
8
Back_labelLayer
10
5.2618747
20
5.0035485
40
0.0689563
50
307.735529
51
345.8336389
0
ARC
8
Back_labelLayer
10
5.2220042
20
5.015055
40
0.1104394
50
345.1079346
51
358.833866
0
ARC
8
Back_labelLayer
10
5.1870588
20
5.0170672
40
0.1454243
50
358.3214646
51
0.0103456
0
ARC
8
Back_labelLayer
10
5.2312599
20
5.0180282
40
0.1012274
50
359.4708976
51
13.6048552
0
ARC
8
Back_labelLayer
10
5.2663764
20
5.0272615
40
0.0649282
50
12.9748401
51
55.1887119
0
ARC
8
Back_labelLayer
10
5.2507972
20
5.0032487
40
0.0935419
50
55.7504784
51
72.6738513
0
ARC
8
Back_labelLayer
10
5.2307519
20
4.9414731
40
0.158486
50
72.4069369
51
82.6767117
0
ARC
8
Back_labelLayer
10
5.2173132
20
4.8419226
40
0.2589381
50
82.5352008
51
89.4274314
0
ARC
8
Back_labelLayer
10
5.2150904
20
4.7665068
40
0.3343757
50
89.1757074
51
90.00671
0
LINE
8
Back_labelLayer
10
5.7349243
20
4.8812536
11
5.6958862
21
4.8812536
0
LINE
8
Back_labelLayer
10
5.6958862
20
4.8812536
11
5.6854126
21
4.9307653
0
LINE
8
Back_labelLayer
10
5.6854126
20
4.9307653
11
5.6828735
21
4.9307653
0
LINE
8
Back_labelLayer
10
5.6244751
20
5.0878698
11
5.6835083
21
5.0897741
0
LINE
8
Back_labelLayer
10
5.6835083
20
5.0897741
11
5.6835083
21
5.1113561
0
LINE
8
Back_labelLayer
10
5.5111694
20
5.1646764
11
5.4949829
21
5.2049841
0
LINE
8
Back_labelLayer
10
5.7349243
20
5.1186559
11
5.7349243
21
4.8812536
0
LINE
8
Back_labelLayer
10
5.6822388
20
5.020902
11
5.6822388
21
5.0523229
0
LINE
8
Back_labelLayer
10
5.6822388
20
5.0523229
11
5.6295532
21
5.0501012
0
ARC
8
Back_labelLayer
10
5.5114504
20
5.0661132
40
0.2184146
50
314.7445228
51
321.706977
0
ARC
8
Back_labelLayer
10
5.5651035
20
5.0115991
40
0.1419272
50
304.849317
51
314.8526286
0
ARC
8
Back_labelLayer
10
5.5908924
20
4.974893
40
0.0970679
50
294.3934904
51
304.7376347
0
ARC
8
Back_labelLayer
10
5.5820839
20
4.9977191
40
0.1215022
50
281.2980234
51
293.730879
0
ARC
8
Back_labelLayer
10
5.5704431
20
5.0541403
40
0.1791111
50
272.9335595
51
281.4137213
0
ARC
8
Back_labelLayer
10
5.5665882
20
5.1119714
40
0.2370654
50
269.9530628
51
273.148688
0
ARC
8
Back_labelLayer
10
5.5652511
20
5.0365781
40
0.1616763
50
258.6716632
51
270.4050602
0
ARC
8
Back_labelLayer
10
5.5540205
20
4.9828617
40
0.1068013
50
238.3272342
51
258.9185545
0
ARC
8
Back_labelLayer
10
5.5462919
20
4.9687568
40
0.0907429
50
227.7699059
51
237.8040919
0
ARC
8
Back_labelLayer
10
5.5438616
20
4.9653642
40
0.0865988
50
192.0829271
51
227.4518668
0
ARC
8
Back_labelLayer
10
5.5885121
20
4.9763703
40
0.1325715
50
179.5460772
51
192.6947826
0
ARC
8
Back_labelLayer
10
5.547031
20
4.9811696
40
0.0911633
50
115.4904836
51
182.3569149
0
ARC
8
Back_labelLayer
10
5.5926878
20
4.8974248
40
0.1864766
50
101.3569857
51
117.0797743
0
ARC
8
Back_labelLayer
10
5.6293552
20
4.726062
40
0.3617113
50
92.4699183
51
101.7061746
0
ARC
8
Back_labelLayer
10
5.6399264
20
4.5726779
40
0.5154236
50
91.7178666
51
92.9091653
0
ARC
8
Back_labelLayer
10
5.5321614
20
5.1121648
40
0.1513491
50
359.6938705
51
8.0028202
0
ARC
8
Back_labelLayer
10
5.5894274
20
5.1205057
40
0.09348
50
7.8268796
51
20.603662
0
ARC
8
Back_labelLayer
10
5.6218194
20
5.1328956
40
0.0588
50
20.4101917
51
41.4477769
0
ARC
8
Back_labelLayer
10
5.6266079
20
5.1355284
40
0.0534814
50
42.7294646
51
71.0382001
0
ARC
8
Back_labelLayer
10
5.6153422
20
5.1049004
40
0.086111
50
70.5709583
51
83.9938748
0
ARC
8
Back_labelLayer
10
5.6099581
20
5.0611841
40
0.130153
50
83.6503674
51
90.1760781
0
ARC
8
Back_labelLayer
10
5.6109007
20
5.0198125
40
0.1715294
50
90.4484776
51
103.76682
0
ARC
8
Back_labelLayer
10
5.6310749
20
4.9347345
40
0.2589651
50
103.6226799
51
112.4316317
0
ARC
8
Back_labelLayer
10
5.6656666
20
4.8474054
40
0.3528884
50
112.2126509
51
115.9640706
0
ARC
8
Back_labelLayer
10
5.6102732
20
4.9911818
40
0.2429058
50
106.356596
51
118.3352413
0
ARC
8
Back_labelLayer
10
5.6206008
20
4.9592962
40
0.2764109
50
104.5159808
51
106.5493901
0
ARC
8
Back_labelLayer
10
5.6130355
20
4.9908311
40
0.2439872
50
90.0712876
51
104.6522905
0
ARC
8
Back_labelLayer
10
5.6139937
20
5.0122978
40
0.2225238
50
81.5683185
51
90.3248931
0
ARC
8
Back_labelLayer
10
5.6268569
20
5.0961143
40
0.1377277
50
68.2276258
51
81.7489297
0
ARC
8
Back_labelLayer
10
5.6447787
20
5.1407064
40
0.0896691
50
47.8686057
51
68.293558
0
ARC
8
Back_labelLayer
10
5.6476887
20
5.1465149
40
0.0834274
50
19.2329994
51
46.6745708
0
ARC
8
Back_labelLayer
10
5.5992351
20
5.128491
40
0.1351179
50
6.3378638
51
19.6811711
0
ARC
8
Back_labelLayer
10
5.5276439
20
5.1193714
40
0.2072816
50
359.8022415
51
6.6587345
0
ARC
8
Back_labelLayer
10
5.5779322
20
5.0634484
40
0.145065
50
269.5795521
51
282.0411596
0
ARC
8
Back_labelLayer
10
5.5885136
20
5.0165101
40
0.0969536
50
281.7122125
51
306.4592459
0
ARC
8
Back_labelLayer
10
5.5932072
20
5.0087914
40
0.0879601
50
306.988122
51
313.856123
0
ARC
8
Back_labelLayer
10
5.5926471
20
5.0086337
40
0.088236
50
314.1893239
51
347.4269062
0
ARC
8
Back_labelLayer
10
5.5484492
20
5.0197096
40
0.1337904
50
346.917667
51
0.282461
0
ARC
8
Back_labelLayer
10
5.5050684
20
5.0209016
40
0.1771703
50
359.8278056
51
0.0001231
0
ARC
8
Back_labelLayer
10
5.6420785
20
4.6635606
40
0.3867435
50
91.8559411
51
96.4485496
0
ARC
8
Back_labelLayer
10
5.6246341
20
4.8144523
40
0.2348477
50
96.3540743
51
102.9958224
0
ARC
8
Back_labelLayer
10
5.6009608
20
4.9150274
40
0.1315258
50
102.7999558
51
113.2432019
0
ARC
8
Back_labelLayer
10
5.581448
20
4.9617008
40
0.0809416
50
113.5899654
51
121.679277
0
ARC
8
Back_labelLayer
10
5.5678729
20
4.9823801
40
0.0562186
50
120.9735983
51
172.4180295
0
ARC
8
Back_labelLayer
10
5.5943765
20
4.977086
40
0.0832075
50
171.2123278
51
180.2067096
0
ARC
8
Back_labelLayer
10
5.5864569
20
4.9761636
40
0.0752901
50
179.5265128
51
192.7792857
0
ARC
8
Back_labelLayer
10
5.560992
20
4.9699905
40
0.0490921
50
192.3270221
51
222.0572339
0
ARC
8
Back_labelLayer
10
5.5591109
20
4.9688732
40
0.0469489
50
222.5826545
51
229.2536173
0
ARC
8
Back_labelLayer
10
5.5654977
20
4.9770997
40
0.0573526
50
229.7839932
51
254.2724228
0
ARC
8
Back_labelLayer
10
5.5740242
20
5.005516
40
0.0870178
50
253.9401184
51
266.4534589
0
ARC
8
Back_labelLayer
10
5.5767484
20
5.0369654
40
0.1185781
50
266.0797127
51
270.0576353
0
LINE
8
Back_labelLayer
10
6.0754761
20
5.217362
11
6.0592896
21
5.172611
0
LINE
8
Back_labelLayer
10
6.0703979
20
4.939652
11
6.0703979
21
4.8929967
0
ARC
8
Back_labelLayer
10
5.9808032
20
5.0718134
40
0.1969146
50
256.4246789
51
270.4887446
0
ARC
8
Back_labelLayer
10
5.9650671
20
5.0103937
40
0.1335201
50
221.7975814
51
256.802249
0
ARC
8
Back_labelLayer
10
5.9803048
20
5.0216522
40
0.1523938
50
196.0164908
51
221.1348263
0
ARC
8
Back_labelLayer
10
6.0568926
20
5.0450606
40
0.2324715
50
183.5914522
51
196.3536853
0
ARC
8
Back_labelLayer
10
6.1426229
20
5.0526177
40
0.3185143
50
179.9388464
51
183.9821634
0
ARC
8
Back_labelLayer
10
6.1147997
20
5.0548293
40
0.2906969
50
169.8977948
51
180.3688915
0
ARC
8
Back_labelLayer
10
6.0136003
20
5.0735504
40
0.1877839
50
153.0874461
51
170.1052686
0
ARC
8
Back_labelLayer
10
5.9752059
20
5.091897
40
0.1452469
50
138.6552289
51
152.6855614
0
ARC
8
Back_labelLayer
10
5.9680389
20
5.0971188
40
0.1364191
50
101.4912227
51
138.3132896
0
ARC
8
Back_labelLayer
10
5.9844903
20
5.0286489
40
0.2068091
50
89.5889158
51
102.1786549
0
ARC
8
Back_labelLayer
10
5.9857574
20
4.9977025
40
0.2377504
50
77.7702359
51
89.9477647
0
ARC
8
Back_labelLayer
10
5.9812673
20
4.9729193
40
0.2629236
50
74.6792647
51
77.958028
0
ARC
8
Back_labelLayer
10
6.0055242
20
5.060808
40
0.1717493
50
70.096447
51
74.7368771
0
ARC
8
Back_labelLayer
10
6.0286719
20
5.1242663
40
0.1042013
50
63.5048766
51
70.1851981
0
ARC
8
Back_labelLayer
10
6.0433569
20
5.1545123
40
0.0705814
50
62.9308507
51
63.2202008
0
ARC
8
Back_labelLayer
10
5.9727263
20
4.9547542
40
0.2344243
50
68.3300932
51
74.8825012
0
ARC
8
Back_labelLayer
10
5.9603273
20
4.9107551
40
0.2801349
50
74.7812623
51
77.4488748
0
ARC
8
Back_labelLayer
10
5.9733657
20
4.9719367
40
0.2175827
50
77.2991343
51
81.7347575
0
ARC
8
Back_labelLayer
10
5.982824
20
5.0378615
40
0.1509829
50
81.6903679
51
87.5070587
0
ARC
8
Back_labelLayer
10
5.9846583
20
5.0723346
40
0.116463
50
87.6709381
51
89.9772361
0
ARC
8
Back_labelLayer
10
5.9820923
20
5.071963
40
0.1168638
50
88.7191625
51
112.5666497
0
ARC
8
Back_labelLayer
10
5.9737885
20
5.0994179
40
0.0883707
50
114.4264545
51
161.6633723
0
ARC
8
Back_labelLayer
10
6.0562826
20
5.0671296
40
0.1768963
50
160.1421258
51
175.1369538
0
ARC
8
Back_labelLayer
10
6.1697726
20
5.0543816
40
0.291075
50
174.5304573
51
180.1553457
0
ARC
8
Back_labelLayer
10
6.1338511
20
5.0522761
40
0.2551557
50
179.7044095
51
188.0745923
0
ARC
8
Back_labelLayer
10
6.0419478
20
5.0388288
40
0.1622754
50
187.9315768
51
200.388464
0
ARC
8
Back_labelLayer
10
5.9922489
20
5.0204172
40
0.1092758
50
200.4178787
51
216.6395325
0
ARC
8
Back_labelLayer
10
5.9714206
20
5.0055273
40
0.0836783
50
216.9696638
51
261.3103699
0
ARC
8
Back_labelLayer
10
5.9806154
20
5.0483962
40
0.1274712
50
260.1359677
51
270.2687609
0
ARC
8
Back_labelLayer
10
5.9801908
20
5.1414705
40
0.2205464
50
270.2656447
51
286.2890681
0
ARC
8
Back_labelLayer
10
5.9667922
20
5.1914472
40
0.2722774
50
286.045638
51
292.3656206
0
ARC
8
Back_labelLayer
10
6.0024892
20
5.0265876
40
0.1498603
50
282.0345001
51
296.9457572
0
ARC
8
Back_labelLayer
10
5.9870784
20
5.0960326
40
0.2209929
50
272.5977284
51
282.1881865
0
ARC
8
Back_labelLayer
10
5.9826568
20
5.163915
40
0.289009
50
269.9655261
51
272.8634706
0
LINE
8
Back_labelLayer
10
6.2024292
20
5.0593053
11
6.2049683
21
5.0593053
0
LINE
8
Back_labelLayer
10
6.2465454
20
5.1100866
11
6.3588989
21
5.2291051
0
LINE
8
Back_labelLayer
10
6.3588989
20
5.2291051
11
6.4214233
21
5.2291051
0
LINE
8
Back_labelLayer
10
6.4214233
20
5.2291051
11
6.2805054
21
5.0808874
0
LINE
8
Back_labelLayer
10
6.2805054
20
5.0808874
11
6.4312622
21
4.8812536
0
LINE
8
Back_labelLayer
10
6.4312622
20
4.8812536
11
6.3674683
21
4.8812536
0
LINE
8
Back_labelLayer
10
6.3674683
20
4.8812536
11
6.2446411
21
5.0456579
0
LINE
8
Back_labelLayer
10
6.2446411
20
5.0456579
11
6.2049683
21
5.0113805
0
LINE
8
Back_labelLayer
10
6.2049683
20
5.0113805
11
6.2049683
21
4.8812536
0
LINE
8
Back_labelLayer
10
6.2049683
20
4.8812536
11
6.1529175
21
4.8812536
0
LINE
8
Back_labelLayer
10
6.1529175
20
4.8812536
11
6.1529175
21
5.3751012
0
LINE
8
Back_labelLayer
10
6.1529175
20
5.3751012
11
6.2049683
21
5.3751012
0
LINE
8
Back_labelLayer
10
6.2049683
20
5.3751012
11
6.2049683
21
5.1132604
0
ARC
8
Back_labelLayer
10
6.4593174
20
4.8792733
40
0.3116168
50
142.322323
51
144.7085787
0
ARC
8
Back_labelLayer
10
6.6257807
20
4.7508812
40
0.5218418
50
140.4336376
51
142.3363839
0
ARC
8
Back_labelLayer
10
6.8420666
20
4.5728332
40
0.8019855
50
139.2798402
51
140.4702884
0
ARC
8
Back_labelLayer
10
7.0925269
20
4.3574565
40
1.1323148
50
138.3420055
51
139.287757
0
ARC
8
Back_labelLayer
10
5.8541878
20
5.1139093
40
0.3507811
50
358.2737288
51
359.8940085
0
ARC
8
Back_labelLayer
10
5.5800101
20
5.1215626
40
0.6250651
50
357.5040134
51
358.3296104
0
ARC
8
Back_labelLayer
10
5.1711968
20
5.1396234
40
1.0342772
50
356.6328228
51
357.4907135
0
ARC
8
Back_labelLayer
10
4.4971364
20
5.1789118
40
1.7094816
50
356.0321843
51
356.6452256
0
ARC
8
Back_labelLayer
10
3.9361991
20
5.2168996
40
2.2717031
50
356.0220399
51
356.0553365
0
LINE
8
Right_outsideCutPath
10
11.743
20
6.75
11
11.743
21
5.875
0
LINE
8
Right_outsideCutPath
10
11.743
20
5.875
11
11.625
21
5.875
0
LINE
8
Right_outsideCutPath
10
11.625
20
5.875
11
11.625
21
5.375
0
LINE
8
Right_outsideCutPath
10
11.625
20
5.375
11
11.743
21
5.375
0
LINE
8
Right_outsideCutPath
10
11.743
20
5.375
11
11.743
21
4.875
0
LINE
8
Right_outsideCutPath
10
11.743
20
4.875
11
11.625
21
4.875
0
LINE
8
Right_outsideCutPath
10
11.625
20
4.875
11
11.625
21
4.375
0
LINE
8
Right_outsideCutPath
10
11.625
20
4.375
11
11.743
21
4.375
0
LINE
8
Right_outsideCutPath
10
11.743
20
4.375
11
11.743
21
3.618
0
LINE
8
Right_outsideCutPath
10
11.743
20
3.618
11
12.375
21
3.618
0
LINE
8
Right_outsideCutPath
10
12.375
20
3.618
11
12.375
21
3.5
0
LINE
8
Right_outsideCutPath
10
12.375
20
3.5
11
12.875
21
3.5
0
LINE
8
Right_outsideCutPath
10
12.875
20
3.5
11
12.875
21
3.618
0
LINE
8
Right_outsideCutPath
10
12.875
20
3.618
11
13.375
21
3.618
0
LINE
8
Right_outsideCutPath
10
13.375
20
3.618
11
13.375
21
3.5
0
LINE
8
Right_outsideCutPath
10
13.375
20
3.5
11
13.875
21
3.5
0
LINE
8
Right_outsideCutPath
10
13.875
20
3.5
11
13.875
21
3.618
0
LINE
8
Right_outsideCutPath
10
13.875
20
3.618
11
14.375
21
3.618
0
LINE
8
Right_outsideCutPath
10
14.375
20
3.618
11
14.375
21
3.5
0
LINE
8
Right_outsideCutPath
10
14.375
20
3.5
11
14.875
21
3.5
0
LINE
8
Right_outsideCutPath
10
14.875
20
3.5
11
14.875
21
3.618
0
LINE
8
Right_outsideCutPath
10
14.875
20
3.618
11
15.375
21
3.618
0
LINE
8
Right_outsideCutPath
10
15.375
20
3.618
11
15.375
21
3.5
0
LINE
8
Right_outsideCutPath
10
15.375
20
3.5
11
15.875
21
3.5
0
LINE
8
Right_outsideCutPath
10
15.875
20
3.5
11
15.875
21
3.618
0
LINE
8
Right_outsideCutPath
10
15.875
20
3.618
11
16.375
21
3.618
0
LINE
8
Right_outsideCutPath
10
16.375
20
3.618
11
16.375
21
3.5
0
LINE
8
Right_outsideCutPath
10
16.375
20
3.5
11
16.875
21
3.5
0
LINE
8
Right_outsideCutPath
10
16.875
20
3.5
11
16.875
21
3.618
0
LINE
8
Right_outsideCutPath
10
16.875
20
3.618
11
17.375
21
3.618
0
LINE
8
Right_outsideCutPath
10
17.375
20
3.618
11
17.375
21
3.5
0
LINE
8
Right_outsideCutPath
10
17.375
20
3.5
11
17.875
21
3.5
0
LINE
8
Right_outsideCutPath
10
17.875
20
3.5
11
17.875
21
3.618
0
LINE
8
Right_outsideCutPath
10
17.875
20
3.618
11
18.375
21
3.618
0
LINE
8
Right_outsideCutPath
10
18.375
20
3.618
11
18.375
21
3.5
0
LINE
8
Right_outsideCutPath
10
18.375
20
3.5
11
18.875
21
3.5
0
LINE
8
Right_outsideCutPath
10
18.875
20
3.5
11
18.875
21
3.618
0
LINE
8
Right_outsideCutPath
10
18.875
20
3.618
11
19.375
21
3.618
0
LINE
8
Right_outsideCutPath
10
19.375
20
3.618
11
19.375
21
3.5
0
LINE
8
Right_outsideCutPath
10
19.375
20
3.5
11
19.875
21
3.5
0
LINE
8
Right_outsideCutPath
10
19.875
20
3.5
11
19.875
21
3.618
0
LINE
8
Right_outsideCutPath
10
19.875
20
3.618
11
20.375
21
3.618
0
LINE
8
Right_outsideCutPath
10
20.375
20
3.618
11
20.375
21
3.5
0
LINE
8
Right_outsideCutPath
10
20.375
20
3.5
11
20.875
21
3.5
0
LINE
8
Right_outsideCutPath
10
20.875
20
3.5
11
20.875
21
3.618
0
LINE
8
Right_outsideCutPath
10
20.875
20
3.618
11
21.375
21
3.618
0
LINE
8
Right_outsideCutPath
10
21.375
20
3.618
11
21.375
21
3.5
0
LINE
8
Right_outsideCutPath
10
21.375
20
3.5
11
21.875
21
3.5
0
LINE
8
Right_outsideCutPath
10
21.875
20
3.5
11
21.875
21
3.618
0
LINE
8
Right_outsideCutPath
10
21.875
20
3.618
11
22.507
21
3.618
0
LINE
8
Right_outsideCutPath
10
22.507
20
3.618
11
22.507
21
4.375
0
LINE
8
Right_outsideCutPath
10
22.507
20
4.375
11
22.625
21
4.375
0
LINE
8
Right_outsideCutPath
10
22.625
20
4.375
11
22.625
21
4.875
0
LINE
8
Right_outsideCutPath
10
22.625
20
4.875
11
22.507
21
4.875
0
LINE
8
Right_outsideCutPath
10
22.507
20
4.875
11
22.507
21
5.375
0
LINE
8
Right_outsideCutPath
10
22.507
20
5.375
11
22.625
21
5.375
0
LINE
8
Right_outsideCutPath
10
22.625
20
5.375
11
22.625
21
5.875
0
LINE
8
Right_outsideCutPath
10
22.625
20
5.875
11
22.507
21
5.875
0
LINE
8
Right_outsideCutPath
10
22.507
20
5.875
11
22.507
21
6.75
0
LINE
8
Right_outsideCutPath
10
22.507
20
6.75
11
11.743
21
6.75
0
LINE
8
Right_labelLayer
10
16.5391113
20
5.149123
11
16.4423096
21
5.149123
0
LINE
8
Right_labelLayer
10
16.4423096
20
5.149123
11
16.4423096
21
4.9561542
0
LINE
8
Right_labelLayer
10
16.4423096
20
4.9561542
11
16.3883545
21
4.9561542
0
LINE
8
Right_labelLayer
10
16.3883545
20
4.9561542
11
16.3883545
21
5.4201679
0
LINE
8
Right_labelLayer
10
16.3883545
20
5.4201679
11
16.515625
21
5.4201679
0
LINE
8
Right_labelLayer
10
16.5892578
20
5.1646747
11
16.7152588
21
4.9561542
0
LINE
8
Right_labelLayer
10
16.7152588
20
4.9561542
11
16.6514648
21
4.9561542
0
LINE
8
Right_labelLayer
10
16.6514648
20
4.9561542
11
16.5391113
21
5.149123
0
LINE
8
Right_labelLayer
10
16.4423096
20
5.3728779
11
16.4423096
21
5.1954609
0
LINE
8
Right_labelLayer
10
16.4423096
20
5.1954609
11
16.5162598
21
5.1954609
0
LINE
8
Right_labelLayer
10
16.5124512
20
5.3728779
11
16.4423096
21
5.3728779
0
ARC
8
Right_labelLayer
10
16.5172407
20
5.063826
40
0.3563455
50
83.0885462
51
90.2597899
0
ARC
8
Right_labelLayer
10
16.534218
20
5.1989242
40
0.2201869
50
72.383466
51
83.243858
0
ARC
8
Right_labelLayer
10
16.5616451
20
5.2830853
40
0.1316736
50
54.2452224
51
72.6749515
0
ARC
8
Right_labelLayer
10
16.5766883
20
5.3062434
40
0.1040986
50
51.2932988
51
53.5166243
0
ARC
8
Right_labelLayer
10
16.5760042
20
5.30613
40
0.1046159
50
12.6709625
51
51.0397972
0
ARC
8
Right_labelLayer
10
16.517321
20
5.2908098
40
0.1652434
50
359.8747789
51
13.3903911
0
ARC
8
Right_labelLayer
10
16.4729726
20
5.2891213
40
0.2095956
50
359.9911071
51
0.3628328
0
ARC
8
Right_labelLayer
10
16.5450326
20
5.2867618
40
0.1375555
50
337.961278
51
0.9692903
0
ARC
8
Right_labelLayer
10
16.5655274
20
5.2815296
40
0.1166295
50
298.5128501
51
336.565779
0
ARC
8
Right_labelLayer
10
16.5294937
20
5.3401977
40
0.1854187
50
288.8032807
51
299.643136
0
ARC
8
Right_labelLayer
10
16.517358
20
5.4242928
40
0.2288345
50
269.7250274
51
277.1863995
0
ARC
8
Right_labelLayer
10
16.528836
20
5.336457
40
0.1402534
50
277.0230608
51
288.3852453
0
ARC
8
Right_labelLayer
10
16.5471771
20
5.2827743
40
0.0835272
50
288.0606773
51
307.9001008
0
ARC
8
Right_labelLayer
10
16.556514
20
5.2693083
40
0.0671719
50
308.6715404
51
310.3992385
0
ARC
8
Right_labelLayer
10
16.5528948
20
5.2728133
40
0.0721884
50
310.783895
51
345.5579551
0
ARC
8
Right_labelLayer
10
16.5142305
20
5.2839964
40
0.1124262
50
344.9530741
51
358.4136689
0
ARC
8
Right_labelLayer
10
16.4792672
20
5.2861874
40
0.1474418
50
357.9386917
51
0.0174658
0
ARC
8
Right_labelLayer
10
16.5041628
20
5.2871935
40
0.1225499
50
359.5506479
51
11.1971947
0
ARC
8
Right_labelLayer
10
16.5497774
20
5.2966261
40
0.0759728
50
10.8990157
51
31.3200876
0
ARC
8
Right_labelLayer
10
16.5635129
20
5.3042841
40
0.060261
50
31.8886134
51
53.2450511
0
ARC
8
Right_labelLayer
10
16.5511246
20
5.2858911
40
0.0824178
50
53.9963838
51
71.6766672
0
ARC
8
Right_labelLayer
10
16.5307482
20
5.2268518
40
0.1448716
50
71.3671625
51
81.8539213
0
ARC
8
Right_labelLayer
10
16.5163038
20
5.1311545
40
0.2416511
50
81.6787992
51
88.4238096
0
ARC
8
Right_labelLayer
10
16.5125861
20
5.0441388
40
0.328739
50
88.1932605
51
90.0235198
0
LINE
8
Right_labelLayer
10
16.8349121
20
5.3040058
11
16.8349121
21
4.9561542
0
LINE
8
Right_labelLayer
10
16.8349121
20
4.9561542
11
16.7822265
21
4.9561542
0
LINE
8
Right_labelLayer
10
16.7822265
20
4.9561542
11
16.7822265
21
5.3040058
0
LINE
8
Right_labelLayer
10
16.7822265
20
5.3040058
11
16.8349121
21
5.3040058
0
ARC
8
Right_labelLayer
10
16.8361464
20
5.3986308
40
0.0583643
50
170.8435
51
180.3556595
0
ARC
8
Right_labelLayer
10
16.8143109
20
5.4022835
40
0.036226
50
155.9688023
51
171.0514093
0
ARC
8
Right_labelLayer
10
16.8037232
20
5.4069801
40
0.0246434
50
133.7889437
51
155.917318
0
ARC
8
Right_labelLayer
10
16.8076301
20
5.4026605
40
0.0304657
50
92.6437343
51
133.4714662
0
ARC
8
Right_labelLayer
10
16.8088621
20
5.3929863
40
0.0401942
50
89.9649149
51
93.762
0
ARC
8
Right_labelLayer
10
16.8093675
20
5.402142
40
0.0310423
50
46.371322
51
90.8874522
0
ARC
8
Right_labelLayer
10
16.8124593
20
5.4053336
40
0.0265989
50
17.7233927
51
46.4483539
0
ARC
8
Right_labelLayer
10
16.7980558
20
5.4003727
40
0.0418304
50
4.9411123
51
18.190146
0
ARC
8
Right_labelLayer
10
16.779697
20
5.3983897
40
0.0602933
50
359.8848594
51
5.3158729
0
ARC
8
Right_labelLayer
10
16.7854759
20
5.3978984
40
0.0545156
50
349.8352811
51
0.3890085
0
ARC
8
Right_labelLayer
10
16.8053269
20
5.3941956
40
0.0343229
50
332.6320749
51
350.0712073
0
ARC
8
Right_labelLayer
10
16.8130469
20
5.390384
40
0.0257152
50
313.6169857
51
332.2669751
0
ARC
8
Right_labelLayer
10
16.8093272
20
5.3937719
40
0.030736
50
269.1788399
51
314.2803328
0
ARC
8
Right_labelLayer
10
16.808537
20
5.3965002
40
0.033463
50
250.4987511
51
270.5988529
0
ARC
8
Right_labelLayer
10
16.8075256
20
5.3927176
40
0.0295614
50
225.1300785
51
249.8991472
0
ARC
8
Right_labelLayer
10
16.8059399
20
5.3909657
40
0.0272015
50
197.7940739
51
224.8937461
0
ARC
8
Right_labelLayer
10
16.8207777
20
5.3960505
40
0.0428844
50
184.9920451
51
198.2044183
0
ARC
8
Right_labelLayer
10
16.8399711
20
5.3981388
40
0.0621881
50
179.8805203
51
185.3700308
0
LINE
8
Right_labelLayer
10
17.1110351
20
5.3040058
11
17.2313232
21
5.3040058
0
LINE
8
Right_labelLayer
10
17.2313232
20
5.3040058
11
17.2313232
21
5.2706806
0
LINE
8
Right_labelLayer
10
17.2313232
20
5.2706806
11
17.1668945
21
5.2630634
0
LINE
8
Right_labelLayer
10
17.0481933
20
5.0113788
11
17.1097656
21
5.0113788
0
LINE
8
Right_labelLayer
10
17.0929443
20
4.9640888
11
17.0297851
21
4.9640888
0
ARC
8
Right_labelLayer
10
17.0997604
20
5.2099337
40
0.085614
50
29.4580551
51
38.3579988
0
ARC
8
Right_labelLayer
10
17.064746
20
5.1899468
40
0.1259311
50
23.1849558
51
29.5414357
0
ARC
8
Right_labelLayer
10
17.0313216
20
5.1751248
40
0.1624921
50
21.251803
51
23.3491842
0
ARC
8
Right_labelLayer
10
17.0881306
20
5.1977202
40
0.1013573
50
6.850503
51
20.9875508
0
ARC
8
Right_labelLayer
10
17.0595924
20
5.193851
40
0.1301539
50
359.87038
51
7.043137
0
ARC
8
Right_labelLayer
10
17.068973
20
5.1923008
40
0.1207796
50
342.5650066
51
0.5957255
0
ARC
8
Right_labelLayer
10
17.0912495
20
5.1861493
40
0.0976867
50
310.6095792
51
342.0924346
0
ARC
8
Right_labelLayer
10
17.0787577
20
5.2006783
40
0.1168476
50
284.9316471
51
310.6225165
0
ARC
8
Right_labelLayer
10
17.0631244
20
5.2554648
40
0.173815
50
272.5339719
51
285.2575967
0
ARC
8
Right_labelLayer
10
17.0591111
20
5.3101672
40
0.2286468
50
269.9682289
51
272.9326138
0
ARC
8
Right_labelLayer
10
17.0586087
20
5.2508263
40
0.1693063
50
263.4830209
51
270.1271394
0
ARC
8
Right_labelLayer
10
17.0558546
20
5.2246701
40
0.1430068
50
259.4965405
51
263.3899287
0
ARC
8
Right_labelLayer
10
17.0729266
20
5.0008107
40
0.0937633
50
117.3942245
51
128.4089004
0
ARC
8
Right_labelLayer
10
17.048783
20
5.0307634
40
0.0552936
50
128.0875593
51
147.1401868
0
ARC
8
Right_labelLayer
10
17.0357816
20
5.0394882
40
0.0396394
50
147.5368207
51
180.2596345
0
ARC
8
Right_labelLayer
10
17.0234476
20
5.0389717
40
0.0273071
50
179.2931798
51
198.3587366
0
ARC
8
Right_labelLayer
10
17.0183351
20
5.0376282
40
0.0220344
50
199.2302873
51
239.568114
0
ARC
8
Right_labelLayer
10
17.0226217
20
5.0435712
40
0.0293379
50
238.2285624
51
239.848827
0
ARC
8
Right_labelLayer
10
17.025952
20
5.0504334
40
0.0369489
50
240.7282178
51
254.5039297
0
ARC
8
Right_labelLayer
10
17.0360456
20
5.0852218
40
0.0731706
50
254.1654768
51
262.2117059
0
ARC
8
Right_labelLayer
10
17.0440384
20
5.1410748
40
0.1295921
50
262.0568373
51
267.2068344
0
ARC
8
Right_labelLayer
10
17.0478877
20
5.2117009
40
0.2003222
50
267.0915643
51
270.0874254
0
ARC
8
Right_labelLayer
10
17.1109161
20
4.7957032
40
0.2156788
50
81.5746847
51
90.3056411
0
ARC
8
Right_labelLayer
10
17.1227461
20
4.8728663
40
0.1376156
50
68.3671498
51
81.7397031
0
ARC
8
Right_labelLayer
10
17.1381967
20
4.9123524
40
0.095215
50
52.1884169
51
68.2501172
0
ARC
8
Right_labelLayer
10
17.1490092
20
4.9269222
40
0.0770765
50
8.6201689
51
51.8984581
0
ARC
8
Right_labelLayer
10
17.1111304
20
4.9189058
40
0.1157507
50
359.7425528
51
9.7332288
0
ARC
8
Right_labelLayer
10
17.1128173
20
4.9169513
40
0.1140716
50
340.5267053
51
0.7204572
0
ARC
8
Right_labelLayer
10
17.1295744
20
4.9127791
40
0.0968962
50
302.9905164
51
339.5494008
0
ARC
8
Right_labelLayer
10
17.1115846
20
4.9357363
40
0.1259738
50
303.1884273
51
304.1680964
0
ARC
8
Right_labelLayer
10
17.0955811
20
4.9635313
40
0.1580055
50
286.2546224
51
302.5277552
0
ARC
8
Right_labelLayer
10
17.0657459
20
5.0619427
40
0.2608364
50
276.4938126
51
286.4955071
0
ARC
8
Right_labelLayer
10
17.0471277
20
5.2175668
40
0.4175687
50
269.754273
51
276.6170702
0
ARC
8
Right_labelLayer
10
17.043945
20
5.0951765
40
0.2951779
50
262.5636228
51
270.2701821
0
ARC
8
Right_labelLayer
10
17.029488
20
4.9880167
40
0.1870487
50
251.2098214
51
262.7064215
0
ARC
8
Right_labelLayer
10
17.0086496
20
4.9268583
40
0.1224378
50
235.9667977
51
251.2231513
0
ARC
8
Right_labelLayer
10
16.9865654
20
4.8953521
40
0.0839708
50
208.9037731
51
236.4227848
0
ARC
8
Right_labelLayer
10
16.9885884
20
4.8945002
40
0.0853476
50
182.2074427
51
207.7466404
0
ARC
8
Right_labelLayer
10
17.0143806
20
4.8970755
40
0.111231
50
179.9765408
51
183.0212863
0
ARC
8
Right_labelLayer
10
16.9836957
20
4.8985342
40
0.0805587
50
138.3915029
51
181.0051478
0
ARC
8
Right_labelLayer
10
16.9922033
20
4.890889
40
0.0919967
50
113.8123916
51
138.3498036
0
ARC
8
Right_labelLayer
10
17.0083402
20
4.8560438
40
0.1303925
50
102.2873551
51
114.1176436
0
ARC
8
Right_labelLayer
10
17.0032695
20
5.0332057
40
0.0546812
50
216.5863743
51
245.496842
0
ARC
8
Right_labelLayer
10
17.0116294
20
5.0402342
40
0.0655863
50
215.4712443
51
217.1636645
0
ARC
8
Right_labelLayer
10
16.9980587
20
5.0304291
40
0.0488447
50
182.1770053
51
215.3417641
0
ARC
8
Right_labelLayer
10
17.0095922
20
5.0316702
40
0.0604222
50
179.9799875
51
182.9376814
0
ARC
8
Right_labelLayer
10
17.0094206
20
5.0322001
40
0.0602528
50
161.7233074
51
180.483826
0
ARC
8
Right_labelLayer
10
17.0027861
20
5.0340115
40
0.0533861
50
144.4952931
51
161.3362475
0
ARC
8
Right_labelLayer
10
17.0204453
20
5.0208531
40
0.0754053
50
132.7256923
51
144.1488836
0
ARC
8
Right_labelLayer
10
17.0487507
20
4.9906252
40
0.1168162
50
125.2207701
51
132.8650642
0
ARC
8
Right_labelLayer
10
17.0771163
20
4.9512497
40
0.1653435
50
121.2332784
51
125.3815387
0
ARC
8
Right_labelLayer
10
17.0267641
20
5.1779436
40
0.0923607
50
215.1637906
51
247.4749457
0
ARC
8
Right_labelLayer
10
17.0440162
20
5.1918638
40
0.1144906
50
212.4706931
51
215.8865055
0
ARC
8
Right_labelLayer
10
17.0394711
20
5.1886148
40
0.1089122
50
183.0158922
51
212.3123757
0
ARC
8
Right_labelLayer
10
17.063426
20
5.1912821
40
0.1329818
50
179.977263
51
183.6205271
0
ARC
8
Right_labelLayer
10
17.082657
20
5.1926198
40
0.1522181
50
166.819369
51
180.4836671
0
ARC
8
Right_labelLayer
10
17.0321604
20
5.2053694
40
0.1001488
50
132.3288583
51
167.3339186
0
ARC
8
Right_labelLayer
10
17.0389142
20
5.1956618
40
0.1118841
50
106.2186253
51
131.5381869
0
ARC
8
Right_labelLayer
10
17.0560105
20
5.1403042
40
0.1698163
50
93.6333632
51
106.5406501
0
ARC
8
Right_labelLayer
10
17.0615892
20
5.0777036
40
0.2326501
50
89.9380279
51
94.0274838
0
ARC
8
Right_labelLayer
10
17.0624914
20
5.1084058
40
0.2019487
50
82.5849211
51
90.1845727
0
ARC
8
Right_labelLayer
10
17.0686694
20
5.1561796
40
0.1537772
50
74.0081294
51
82.5703189
0
ARC
8
Right_labelLayer
10
17.006839
20
4.8970357
40
0.0529132
50
179.2202031
51
200.9353067
0
ARC
8
Right_labelLayer
10
17.0005467
20
4.8955791
40
0.0465242
50
202.0287812
51
236.146139
0
ARC
8
Right_labelLayer
10
17.0099883
20
4.9075601
40
0.0617449
50
235.0636357
51
238.5084205
0
ARC
8
Right_labelLayer
10
17.0210539
20
4.9273085
40
0.0843697
50
239.106199
51
254.4867458
0
ARC
8
Right_labelLayer
10
17.0357569
20
4.9780047
40
0.1371528
50
254.2326915
51
263.4934937
0
ARC
8
Right_labelLayer
10
17.0449918
20
5.0562513
40
0.2159421
50
263.4115707
51
270.1449971
0
LINE
8
Right_labelLayer
10
17.0455382
20
4.8403099
11
17.0459717
21
4.8403095
0
ARC
8
Right_labelLayer
10
17.0472362
20
5.1944647
40
0.3541575
50
269.7954166
51
275.3991305
0
ARC
8
Right_labelLayer
10
17.06049
20
5.0584083
40
0.2174578
50
275.2955987
51
283.3512991
0
ARC
8
Right_labelLayer
10
17.0820862
20
4.9694515
40
0.1259191
50
283.1372093
51
295.8573592
0
ARC
8
Right_labelLayer
10
17.0980731
20
4.9345444
40
0.0875384
50
296.405676
51
301.7997478
0
ARC
8
Right_labelLayer
10
17.1043636
20
4.925867
40
0.0768527
50
301.2229308
51
318.6238169
0
ARC
8
Right_labelLayer
10
17.1185142
20
4.9127955
40
0.0575957
50
319.0765487
51
1.1408961
0
ARC
8
Right_labelLayer
10
17.1048205
20
4.9145079
40
0.0712803
50
359.5453704
51
10.9900388
0
ARC
8
Right_labelLayer
10
17.1323517
20
4.9201065
40
0.0431874
50
10.661757
51
30.9365189
0
ARC
8
Right_labelLayer
10
17.1410817
20
4.9249511
40
0.0332105
50
31.5103961
51
58.0775037
0
ARC
8
Right_labelLayer
10
17.1329025
20
4.9103059
40
0.0499723
50
58.9968284
51
73.8595996
0
ARC
8
Right_labelLayer
10
17.1163574
20
4.8561399
40
0.106606
50
73.4106865
51
81.5897296
0
ARC
8
Right_labelLayer
10
17.1023408
20
4.7653942
40
0.1984267
50
81.4183927
51
86.5745578
0
ARC
8
Right_labelLayer
10
17.0937629
20
4.6288873
40
0.3352026
50
86.5051031
51
90.1399228
0
ARC
8
Right_labelLayer
10
17.0290327
20
4.8429787
40
0.1211124
50
89.6440361
51
100.0211112
0
ARC
8
Right_labelLayer
10
17.0214178
20
4.8843965
40
0.0790021
50
99.8096454
51
116.8236643
0
ARC
8
Right_labelLayer
10
17.014002
20
4.9000315
40
0.0617047
50
117.2298245
51
130.5028118
0
ARC
8
Right_labelLayer
10
17.0101988
20
4.9049196
40
0.0555185
50
130.7947113
51
169.0408094
0
ARC
8
Right_labelLayer
10
17.0382437
20
4.8983171
40
0.0843149
50
168.2589856
51
180.3814076
0
ARC
8
Right_labelLayer
10
17.0853428
20
5.1918187
40
0.1028507
50
179.5622803
51
191.6522649
0
ARC
8
Right_labelLayer
10
17.049575
20
5.1840922
40
0.0662604
50
191.3555156
51
213.3664905
0
ARC
8
Right_labelLayer
10
17.0409869
20
5.1791318
40
0.0563627
50
213.9566991
51
227.7973303
0
ARC
8
Right_labelLayer
10
17.0484617
20
5.1881978
40
0.068102
50
228.2625857
51
254.7335136
0
ARC
8
Right_labelLayer
10
17.0580064
20
5.2209239
40
0.1021882
50
254.4022725
51
267.4341952
0
ARC
8
Right_labelLayer
10
17.0604947
20
5.2542903
40
0.1356361
50
267.01508
51
270.032331
0
ARC
8
Right_labelLayer
10
17.062123
20
5.2334162
40
0.1147724
50
269.2253212
51
284.3777135
0
ARC
8
Right_labelLayer
10
17.0777662
20
5.1789179
40
0.0581192
50
282.7798537
51
346.4827703
0
ARC
8
Right_labelLayer
10
17.0309923
20
5.1921668
40
0.1067122
50
345.4362058
51
0.7462172
0
ARC
8
Right_labelLayer
10
17.0244228
20
5.1951772
40
0.1132841
50
359.1802887
51
15.0431939
0
ARC
8
Right_labelLayer
10
17.0757527
20
5.210151
40
0.0598376
50
13.9533667
51
77.6675986
0
ARC
8
Right_labelLayer
10
17.0610247
20
5.1573761
40
0.1145828
50
76.1091204
51
90.7028652
0
ARC
8
Right_labelLayer
10
17.0588202
20
5.1614039
40
0.1105492
50
89.5859428
51
101.3334152
0
ARC
8
Right_labelLayer
10
17.0509191
20
5.1990862
40
0.0720498
50
101.0616339
51
121.9740542
0
ARC
8
Right_labelLayer
10
17.0453605
20
5.2090817
40
0.0606299
50
122.5199263
51
134.9979448
0
ARC
8
Right_labelLayer
10
17.0476546
20
5.207702
40
0.063231
50
135.5839647
51
163.0010922
0
ARC
8
Right_labelLayer
10
17.0810505
20
5.1967579
40
0.0983697
50
162.5918954
51
175.7341425
0
ARC
8
Right_labelLayer
10
17.1211288
20
5.1928111
40
0.138634
50
175.3395868
51
180.0854156
0
LINE
8
Right_labelLayer
10
17.593457
20
4.9561542
11
17.5407715
21
4.9561542
0
LINE
8
Right_labelLayer
10
17.5407715
20
4.9561542
11
17.5407715
21
5.1811786
0
LINE
8
Right_labelLayer
10
17.3554199
20
5.1380146
11
17.3554199
21
4.9561542
0
LINE
8
Right_labelLayer
10
17.3554199
20
4.9561542
11
17.3027344
21
4.9561542
0
LINE
8
Right_labelLayer
10
17.3027344
20
4.9561542
11
17.3027344
21
5.4500019
0
LINE
8
Right_labelLayer
10
17.3027344
20
5.4500019
11
17.3554199
21
5.4500019
0
LINE
8
Right_labelLayer
10
17.3554199
20
5.4500019
11
17.3554199
21
5.3005146
0
LINE
8
Right_labelLayer
10
17.3528808
20
5.2557636
11
17.3560547
21
5.2557636
0
LINE
8
Right_labelLayer
10
17.593457
20
5.1830829
11
17.593457
21
4.9561542
0
ARC
8
Right_labelLayer
10
17.3918541
20
5.1820328
40
0.1489198
50
359.6713578
51
8.6882114
0
ARC
8
Right_labelLayer
10
17.4470431
20
5.1907863
40
0.0930425
50
8.4934434
51
22.6583782
0
ARC
8
Right_labelLayer
10
17.4750822
20
5.2024382
40
0.0626789
50
22.7032422
51
42.3412271
0
ARC
8
Right_labelLayer
10
17.4782386
20
5.2038589
40
0.0593987
50
43.379008
51
71.5385184
0
ARC
8
Right_labelLayer
10
17.4664501
20
5.1709195
40
0.0943789
50
71.0825945
51
84.3687705
0
ARC
8
Right_labelLayer
10
17.4611576
20
5.1259311
40
0.1396721
50
84.0190766
51
90.1503698
0
ARC
8
Right_labelLayer
10
17.4596565
20
5.1061668
40
0.1594397
50
89.5923063
51
100.3594917
0
ARC
8
Right_labelLayer
10
17.4483677
20
5.1654952
40
0.0990495
50
100.1072286
51
118.084326
0
ARC
8
Right_labelLayer
10
17.4368857
20
5.1880279
40
0.073766
50
118.4552908
51
139.6698748
0
ARC
8
Right_labelLayer
10
17.44841
20
5.1801523
40
0.0876603
50
140.6206918
51
160.5051392
0
ARC
8
Right_labelLayer
10
17.5091737
20
5.1576572
40
0.1524505
50
160.1566371
51
171.5311956
0
ARC
8
Right_labelLayer
10
17.6075116
20
5.1420778
40
0.2520122
50
171.3203947
51
178.3401723
0
ARC
8
Right_labelLayer
10
17.6957169
20
5.1381451
40
0.340297
50
178.1084631
51
180.0219716
0
ARC
8
Right_labelLayer
10
16.8815817
20
5.2999497
40
0.4738386
50
357.8669253
51
0.0683001
0
ARC
8
Right_labelLayer
10
17.0423953
20
5.2938099
40
0.3129079
50
354.9836946
51
357.8943957
0
ARC
8
Right_labelLayer
10
17.1489025
20
5.2845374
40
0.2059978
50
351.970672
51
354.9625815
0
ARC
8
Right_labelLayer
10
17.4452961
20
5.1999393
40
0.1052634
50
119.8317229
51
147.9722857
0
ARC
8
Right_labelLayer
10
17.4580232
20
5.1803907
40
0.1285596
50
116.6647284
51
120.4182665
0
ARC
8
Right_labelLayer
10
17.4604201
20
5.1741127
40
0.1352474
50
96.6650259
51
116.3786122
0
ARC
8
Right_labelLayer
10
17.4655489
20
5.1387391
40
0.17098
50
89.8926876
51
96.9962816
0
ARC
8
Right_labelLayer
10
17.4671899
20
5.0959824
40
0.2137404
50
80.6860612
51
90.3540386
0
ARC
8
Right_labelLayer
10
17.4804982
20
5.1742576
40
0.134344
50
65.6018134
51
80.8841782
0
ARC
8
Right_labelLayer
10
17.4964819
20
5.2102531
40
0.0949613
50
46.7398328
51
65.4132117
0
ARC
8
Right_labelLayer
10
17.4975656
20
5.2136804
40
0.091736
50
19.2205816
51
45.7657473
0
ARC
8
Right_labelLayer
10
17.4446631
20
5.1940703
40
0.1481495
50
6.4738802
51
19.6464541
0
ARC
8
Right_labelLayer
10
17.3656454
20
5.1839016
40
0.227813
50
359.7940957
51
6.7743131
0
LINE
8
Right_labelLayer
10
17.8616455
20
4.9996357
11
17.8616455
21
4.9593281
0
LINE
8
Right_labelLayer
10
17.7054932
20
5.0561298
11
17.7054932
21
5.2630634
0
LINE
8
Right_labelLayer
10
17.7054932
20
5.2630634
11
17.655664
21
5.2630634
0
LINE
8
Right_labelLayer
10
17.655664
20
5.2630634
11
17.655664
21
5.288454
0
LINE
8
Right_labelLayer
10
17.655664
20
5.288454
11
17.7054932
21
5.3103535
0
LINE
8
Right_labelLayer
10
17.7054932
20
5.3103535
11
17.7277099
21
5.384621
0
LINE
8
Right_labelLayer
10
17.7277099
20
5.384621
11
17.7581787
21
5.384621
0
LINE
8
Right_labelLayer
10
17.7581787
20
5.384621
11
17.7581787
21
5.3040058
0
LINE
8
Right_labelLayer
10
17.7581787
20
5.3040058
11
17.8591064
21
5.3040058
0
LINE
8
Right_labelLayer
10
17.8591064
20
5.3040058
11
17.8591064
21
5.2630634
0
LINE
8
Right_labelLayer
10
17.8591064
20
5.2630634
11
17.7581787
21
5.2630634
0
LINE
8
Right_labelLayer
10
17.7581787
20
5.2630634
11
17.7581787
21
5.0583515
0
ARC
8
Right_labelLayer
10
17.8144007
20
5.1663124
40
0.1730248
50
269.8799223
51
278.3024907
0
ARC
8
Right_labelLayer
10
17.8169193
20
5.1471597
40
0.1537092
50
278.4044174
51
279.0192173
0
ARC
8
Right_labelLayer
10
17.7967013
20
5.2764481
40
0.2845687
50
278.9588207
51
280.512658
0
ARC
8
Right_labelLayer
10
17.8150906
20
5.1778074
40
0.1842287
50
280.4867301
51
282.6263844
0
ARC
8
Right_labelLayer
10
17.831331
20
5.1056345
40
0.1102513
50
282.5893825
51
285.5778641
0
ARC
8
Right_labelLayer
10
17.8398344
20
5.0743928
40
0.0778738
50
285.7241625
51
286.2650931
0
ARC
8
Right_labelLayer
10
17.8394777
20
5.0062226
40
0.0518701
50
287.991688
51
295.3008551
0
ARC
8
Right_labelLayer
10
17.8270004
20
5.0439826
40
0.091638
50
283.3057553
51
288.1191698
0
ARC
8
Right_labelLayer
10
17.8137745
20
5.0991499
40
0.1483684
50
280.0083707
51
283.3730331
0
ARC
8
Right_labelLayer
10
17.8047567
20
5.148189
40
0.1982288
50
279.1894072
51
280.1118501
0
ARC
8
Right_labelLayer
10
17.799535
20
5.1778555
40
0.2283488
50
275.5260599
51
279.2940362
0
ARC
8
Right_labelLayer
10
17.8056443
20
5.114073
40
0.1642744
50
270.8935062
51
275.5474198
0
ARC
8
Right_labelLayer
10
17.8064134
20
5.0836913
40
0.1338848
50
270.0031942
51
270.7671461
0
ARC
8
Right_labelLayer
10
17.8042949
20
5.0873988
40
0.1376086
50
253.7849557
51
270.8852091
0
ARC
8
Right_labelLayer
10
17.7879925
20
5.0317988
40
0.0796681
50
190.3819796
51
253.8770537
0
ARC
8
Right_labelLayer
10
17.8710842
20
5.054265
40
0.1656014
50
179.3547983
51
192.8476973
0
ARC
8
Right_labelLayer
10
17.8642727
20
5.0576879
40
0.1060961
50
179.6416554
51
189.7501303
0
ARC
8
Right_labelLayer
10
17.8268086
20
5.0510055
40
0.0680417
50
189.5468963
51
205.788077
0
ARC
8
Right_labelLayer
10
17.8114232
20
5.0439095
40
0.0511024
50
206.1289271
51
221.4083373
0
ARC
8
Right_labelLayer
10
17.8096981
20
5.0426004
40
0.0489429
50
221.5947196
51
262.3509121
0
ARC
8
Right_labelLayer
10
17.8138029
20
5.0637183
40
0.0704306
50
261.3279636
51
270.1912971
0
ENDSEC
0
EOF